<?xml version="1.0" encoding="utf-8"?>
<!-- Generator: Adobe Illustrator 19.0.0, SVG Export Plug-In . SVG Version: 6.00 Build 0)  -->
<svg version="1.1" xmlns="http://www.w3.org/2000/svg" xmlns:xlink="http://www.w3.org/1999/xlink" x="0px" y="0px"
	 viewBox="0 0 600 600" style="enable-background:new 0 0 600 600;" xml:space="preserve">
<style type="text/css">
	.st0{fill:#EFE5E9;}
	.st1{fill:url(#XMLID_28_);}
	.st2{fill:url(#XMLID_29_);}
	.st3{fill:url(#XMLID_30_);}
	.st4{fill:url(#XMLID_31_);}
	.st5{fill:url(#XMLID_32_);}
	.st6{fill:url(#XMLID_33_);}
	.st7{fill:url(#XMLID_34_);}
	.st8{fill:url(#XMLID_35_);}
	.st9{fill:url(#XMLID_36_);}
	.st10{fill:url(#XMLID_37_);}
	.st11{fill:url(#XMLID_38_);}
	.st12{fill:url(#XMLID_39_);}
	.st13{fill:url(#XMLID_40_);}
	.st14{fill:url(#XMLID_41_);}
	.st15{fill:url(#XMLID_42_);}
	.st16{fill:url(#XMLID_43_);}
	.st17{fill:url(#XMLID_44_);}
	.st18{fill:url(#XMLID_45_);}
	.st19{fill:url(#XMLID_46_);}
	.st20{fill:url(#XMLID_47_);}
	.st21{fill:url(#XMLID_48_);}
	.st22{fill:url(#XMLID_49_);}
	.st23{fill:url(#XMLID_50_);}
	.st24{fill:url(#XMLID_51_);}
	.st25{fill:url(#XMLID_52_);}
	.st26{fill:#F8B143;}
	.st27{fill:url(#XMLID_53_);}
	.st28{fill:url(#XMLID_54_);}
	.st29{fill:url(#XMLID_55_);}
	.st30{fill:url(#XMLID_56_);}
	.st31{fill:url(#XMLID_57_);}
	.st32{fill:url(#XMLID_58_);}
	.st33{fill:url(#XMLID_59_);}
	.st34{fill:url(#XMLID_60_);}
	.st35{fill:url(#XMLID_61_);}
	.st36{fill:url(#XMLID_62_);}
	.st37{fill:url(#XMLID_63_);}
	.st38{fill:url(#XMLID_64_);}
	.st39{fill:url(#XMLID_65_);}
	.st40{fill:url(#XMLID_66_);}
	.st41{fill:url(#XMLID_67_);}
	.st42{fill:url(#XMLID_68_);}
	.st43{fill:#E2E2E2;}
	.st44{fill:#ABD6F1;}
	.st45{fill:url(#XMLID_69_);}
	.st46{fill:url(#XMLID_70_);}
	.st47{fill:url(#XMLID_71_);}
	.st48{fill:url(#XMLID_72_);}
	.st49{fill:#6AB9E2;}
	.st50{fill:url(#XMLID_73_);}
	.st51{fill:#DC4F71;}
	.st52{fill:url(#XMLID_74_);}
	.st53{fill:url(#XMLID_75_);}
	.st54{fill:url(#XMLID_76_);}
	.st55{fill:url(#XMLID_77_);}
	.st56{fill:url(#XMLID_78_);}
	.st57{fill:url(#XMLID_79_);}
	.st58{fill:url(#XMLID_80_);}
	.st59{fill:url(#XMLID_81_);}
	.st60{fill:url(#XMLID_82_);}
	.st61{fill:url(#XMLID_83_);}
	.st62{fill:url(#XMLID_84_);}
	.st63{fill:url(#XMLID_85_);}
	.st64{fill:url(#XMLID_86_);}
	.st65{fill:url(#XMLID_87_);}
	.st66{fill:url(#XMLID_88_);}
	.st67{fill:url(#XMLID_89_);}
	.st68{fill:url(#XMLID_90_);}
	.st69{fill:url(#XMLID_91_);}
	.st70{fill:url(#XMLID_92_);}
	.st71{fill:url(#XMLID_93_);}
	.st72{fill:url(#XMLID_94_);}
	.st73{fill:url(#XMLID_95_);}
	.st74{fill:url(#XMLID_96_);}
	.st75{fill:url(#XMLID_97_);}
	.st76{fill:url(#XMLID_98_);}
	.st77{fill:url(#XMLID_99_);}
	.st78{fill:url(#XMLID_100_);}
	.st79{fill:url(#XMLID_101_);}
	.st80{fill:url(#XMLID_102_);}
	.st81{fill:url(#XMLID_103_);}
	.st82{fill:url(#XMLID_104_);}
	.st83{fill:url(#XMLID_105_);}
	.st84{fill:url(#XMLID_106_);}
	.st85{fill:url(#XMLID_107_);}
	.st86{fill:url(#XMLID_108_);}
	.st87{fill:url(#XMLID_109_);}
	.st88{fill:url(#XMLID_110_);}
	.st89{fill:url(#XMLID_111_);}
	.st90{fill:url(#XMLID_112_);}
	.st91{fill:url(#XMLID_113_);}
	.st92{fill:url(#XMLID_114_);}
	.st93{fill:url(#XMLID_115_);}
	.st94{fill:url(#XMLID_116_);}
	.st95{fill:url(#XMLID_117_);}
	.st96{fill:url(#XMLID_118_);}
	.st97{fill:url(#XMLID_119_);}
	.st98{fill:url(#XMLID_120_);}
	.st99{fill:url(#XMLID_121_);}
	.st100{fill:url(#XMLID_122_);}
	.st101{fill:url(#XMLID_123_);}
	.st102{fill:url(#XMLID_124_);}
	.st103{fill:url(#XMLID_125_);}
	.st104{fill:url(#XMLID_126_);}
	.st105{fill:url(#XMLID_127_);}
	.st106{fill:url(#XMLID_128_);}
	.st107{fill:url(#XMLID_129_);}
	.st108{fill:url(#XMLID_130_);}
	.st109{fill:url(#XMLID_131_);}
	.st110{fill:url(#XMLID_132_);}
	.st111{fill:url(#XMLID_133_);}
	.st112{fill:url(#XMLID_134_);}
	.st113{fill:url(#XMLID_135_);}
	.st114{fill:url(#XMLID_136_);}
	.st115{fill:url(#XMLID_137_);}
	.st116{fill:url(#XMLID_138_);}
	.st117{fill:url(#XMLID_139_);}
	.st118{fill:url(#XMLID_140_);}
	.st119{fill:url(#XMLID_141_);}
	.st120{fill:url(#XMLID_142_);}
	.st121{fill:url(#XMLID_143_);}
	.st122{fill:url(#XMLID_144_);}
	.st123{fill:url(#XMLID_145_);}
	.st124{fill:url(#XMLID_146_);}
	.st125{fill:url(#XMLID_147_);}
	.st126{fill:url(#XMLID_148_);}
	.st127{fill:url(#XMLID_149_);}
	.st128{fill:url(#XMLID_150_);}
	.st129{fill:url(#XMLID_151_);}
	.st130{fill:url(#XMLID_152_);}
	.st131{fill:url(#XMLID_153_);}
	.st132{fill:url(#XMLID_154_);}
	.st133{fill:url(#XMLID_155_);}
	.st134{fill:url(#XMLID_156_);}
	.st135{fill:url(#XMLID_157_);}
	.st136{fill:url(#XMLID_158_);}
	.st137{fill:url(#XMLID_159_);}
	.st138{fill:url(#XMLID_160_);}
	.st139{fill:url(#XMLID_161_);}
	.st140{fill:url(#XMLID_162_);}
	.st141{fill:url(#XMLID_163_);}
	.st142{fill:url(#XMLID_164_);}
	.st143{fill:url(#XMLID_165_);}
	.st144{fill:url(#XMLID_166_);}
	.st145{fill:url(#XMLID_167_);}
	.st146{fill:url(#XMLID_168_);}
	.st147{fill:url(#XMLID_169_);}
	.st148{fill:url(#XMLID_170_);}
	.st149{fill:url(#XMLID_171_);}
	.st150{fill:url(#XMLID_172_);}
	.st151{fill:url(#XMLID_173_);}
	.st152{fill:url(#XMLID_174_);}
	.st153{fill:url(#XMLID_175_);}
	.st154{fill:url(#XMLID_176_);}
	.st155{fill:url(#XMLID_177_);}
	.st156{fill:url(#XMLID_178_);}
	.st157{fill:url(#XMLID_179_);}
	.st158{fill:url(#XMLID_180_);}
	.st159{fill:url(#XMLID_181_);}
	.st160{fill:none;stroke:#000000;stroke-width:0.25;stroke-miterlimit:10;}
	.st161{fill:url(#XMLID_182_);}
	.st162{fill:url(#XMLID_183_);}
	.st163{fill:url(#XMLID_184_);}
	.st164{fill:url(#XMLID_185_);}
	.st165{fill:url(#XMLID_186_);}
	.st166{fill:url(#XMLID_187_);}
	.st167{fill:url(#XMLID_188_);}
	.st168{fill:url(#XMLID_189_);}
	.st169{fill:url(#XMLID_190_);}
	.st170{fill:url(#XMLID_191_);}
	.st171{fill:url(#XMLID_192_);}
	.st172{fill:url(#XMLID_193_);}
	.st173{fill:url(#XMLID_194_);}
	.st174{fill:url(#XMLID_195_);}
</style>
<g id="FLOOR">
	<g id="XMLID_6_">
		<polygon id="XMLID_20_" class="st0" points="354.3,509.5 166.5,527 24.8,508.1 		"/>
		<polygon id="XMLID_9_" class="st0" points="497.7,509.5 441.7,524.7 360.5,508.2 		"/>
	</g>
</g>
<g id="BOOKS">
	<g id="XMLID_1124_">
		<g id="XMLID_1200_">
			<linearGradient id="XMLID_28_" gradientUnits="userSpaceOnUse" x1="405.5717" y1="504.7337" x2="484.8138" y2="504.7337">
				<stop  offset="0.1179" style="stop-color:#755884"/>
				<stop  offset="1" style="stop-color:#343977"/>
			</linearGradient>
			<path id="XMLID_1217_" class="st1" d="M484.6,494.1l-28.8,23.7l-46.9-4.5c0,0-3-1.9-3.3-6.4c-0.4-5.5,2.1-8.4,2.1-8.4l30.5-6.9
				l46.6,0.4L484.6,494.1z"/>
			<linearGradient id="XMLID_29_" gradientUnits="userSpaceOnUse" x1="466.6134" y1="498.8274" x2="441.1032" y2="498.7109">
				<stop  offset="0" style="stop-color:#B7D6E4"/>
				<stop  offset="1" style="stop-color:#E9ECEE"/>
			</linearGradient>
			<path id="XMLID_1216_" class="st2" d="M482.8,492.4l-27.2,22.3c0,0-19-1.6-32.1-2.8c0,0,0,0,0,0c-6.4-0.6-11.4-1-12.1-1.2
				c-1.9-0.4-3.3-3.4-2.8-6.5c0.1-0.8,0.3-1.4,0.6-1.9c0.8-1.6,2.2-2.2,4-2.2c0.8,0,5.4,0.4,11.3,0.8c12.7,1,31.5,2.5,31.5,2.5
				l1.6-1.4l23.1-19.1c0,0-0.4,1.4-0.5,3.1c-0.1,0.9-0.1,1.8,0.1,2.6C480.8,491,482.8,492.4,482.8,492.4z"/>
			<linearGradient id="XMLID_30_" gradientUnits="userSpaceOnUse" x1="406.9403" y1="489.8522" x2="484.9511" y2="489.8522">
				<stop  offset="0.1179" style="stop-color:#755884"/>
				<stop  offset="1" style="stop-color:#343977"/>
			</linearGradient>
			<path id="XMLID_1215_" class="st3" d="M407.1,501.3c0,0,0.7-2.1,5.2-1.2c4.4,0.9,44.3,4.5,44.3,4.5l28.1-24c0,0,0.8-1.7-0.1-1.7
				c-0.9,0-44.7-3.7-46.2-3.8c-1.5-0.1-2.9,0.3-4.8,1.8s-24.7,20.2-25.8,21.6C406.5,499.8,407.1,501.3,407.1,501.3z"/>
			<linearGradient id="XMLID_31_" gradientUnits="userSpaceOnUse" x1="397.7316" y1="506.7067" x2="434.1194" y2="505.5404">
				<stop  offset="0" style="stop-color:#B7D6E4"/>
				<stop  offset="1" style="stop-color:#E9ECEE"/>
			</linearGradient>
			<path id="XMLID_1214_" class="st4" d="M422.7,508.3c0.1,1.4,0.4,2.6,0.8,3.6c-6.4-0.6-11.4-1-12.1-1.2c-1.9-0.4-3.3-3.4-2.8-6.5
				c0.5-3.1,2.2-4.2,4.6-4.1c0.8,0,5.4,0.4,11.3,0.8C423.4,502.7,422.5,505.1,422.7,508.3z"/>
			<linearGradient id="XMLID_32_" gradientUnits="userSpaceOnUse" x1="478.0403" y1="491.954" x2="460.2732" y2="505.2491">
				<stop  offset="0" style="stop-color:#CFDFE5"/>
				<stop  offset="1" style="stop-color:#E9ECEE"/>
			</linearGradient>
			<path id="XMLID_1213_" class="st5" d="M482.8,492.4l-27.2,22.3c0,0-1.2-5.6,0.9-10.1c0.3-0.7,0.7-1.6,1.1-2.5l22.9-18
				c0,0-0.6,2.2-0.1,4.6C480.8,491,482.8,492.4,482.8,492.4z"/>
			<linearGradient id="XMLID_33_" gradientUnits="userSpaceOnUse" x1="449.3634" y1="506.3669" x2="457.0822" y2="529.041">
				<stop  offset="0" style="stop-color:#B7D6E4"/>
				<stop  offset="1" style="stop-color:#E9ECEE"/>
			</linearGradient>
			<path id="XMLID_1201_" class="st6" d="M480.5,484.1c0,0-0.4,1.4-0.5,3.1l-24.2,19.5c0,0-30.2-3.3-37.8-4.1
				c-4.5-0.5-7.3-0.4-8.8-0.1c0.8-1.6,2.2-2.2,4-2.2c0.8,0,5.4,0.4,11.3,0.8c12.7,1,31.5,2.5,31.5,2.5l1.6-1.4L480.5,484.1z"/>
		</g>
		<g id="XMLID_1220_">
			<g id="XMLID_1198_">
				<linearGradient id="XMLID_34_" gradientUnits="userSpaceOnUse" x1="404.4603" y1="482.6913" x2="487.6252" y2="482.6913">
					<stop  offset="0.1179" style="stop-color:#EE5A77"/>
					<stop  offset="1" style="stop-color:#801C56"/>
				</linearGradient>
				<path id="XMLID_1218_" class="st7" d="M404.9,495.6C404.9,495.6,404.9,495.6,404.9,495.6c0.1,0.7,0.6,1.2,1.2,1.2
					c6.7,0.7,46.7,4.7,48.7,4.3c2.1-0.5,28-20.4,29.8-22.1c1.8-1.8,3.7-5.5,2.9-8.6c-0.8-3.2-3.3-5.8-5.1-5.9
					c-1.9-0.1-34.5,0.3-34.5,0.3s-42.3,14.3-42.7,14.4c-0.3,0.1-0.9,1.5-0.5,2c0.4,0.5,1,0.7,1,0.7s44.8,3.2,46.6,3.3
					c1.8,0.2,2.8,4.7,2.6,7.6c-0.2,2.9-1.7,6-3.8,6c-1.9,0-36.7-3.8-44.8-4.7C405.4,493.7,404.7,494.6,404.9,495.6z"/>
				<linearGradient id="XMLID_35_" gradientUnits="userSpaceOnUse" x1="404.9563" y1="488.6931" x2="438.0906" y2="490.9099">
					<stop  offset="0" style="stop-color:#B7D6E4"/>
					<stop  offset="1" style="stop-color:#E9ECEE"/>
				</linearGradient>
				<path id="XMLID_1229_" class="st8" d="M455.2,492.4c0.2,6.2-4.4,6.4-4.4,6.4l-10.1-1.1l-32.4-3.5c0,0,2.3-1.7,2.2-4.8
					c0-1.4-0.5-3-1-4.4c-0.6-1.8-1.3-3.2-1.3-3.2s17.5,1.3,30.4,2.2c7.4,0.5,13.2,1,13.5,1.1c0.5,0.1,1.3,0.5,2,2
					C454.7,488.2,455.1,489.9,455.2,492.4z"/>
				<linearGradient id="XMLID_36_" gradientUnits="userSpaceOnUse" x1="456.1026" y1="492.3808" x2="429.2532" y2="489.4496">
					<stop  offset="0" style="stop-color:#B7D6E4"/>
					<stop  offset="1" style="stop-color:#E9ECEE"/>
				</linearGradient>
				<path id="XMLID_1226_" class="st9" d="M455.2,492.4c0.2,6.3-4.4,6.5-4.4,6.5l-10.1-1.1c0.8-1.3,1.5-3.3,1.5-6c0-3.3-1.7-6-3.5-8
					c7.4,0.6,13.2,1,13.5,1.1C453.1,485.1,455,486.1,455.2,492.4z"/>
				<linearGradient id="XMLID_37_" gradientUnits="userSpaceOnUse" x1="431.51" y1="480.9828" x2="430.6588" y2="494.7234">
					<stop  offset="0" style="stop-color:#B7D6E4"/>
					<stop  offset="1" style="stop-color:#E9ECEE"/>
				</linearGradient>
				<path id="XMLID_1225_" class="st10" d="M454.3,487.1c-9.3-0.7-30.9-2.4-35.8-2.4c-3.6,0-6.7,0.1-8.8,0.3c-0.6-1.8-1.2-3-1.2-3
					s17.5,1,30.4,2c7.4,0.6,13.2,1,13.5,1.1C452.7,485.1,453.6,485.5,454.3,487.1z"/>
			</g>
			<linearGradient id="XMLID_38_" gradientUnits="userSpaceOnUse" x1="455.6248" y1="482.6188" x2="486.7321" y2="482.6188">
				<stop  offset="0.1179" style="stop-color:#EE5A77"/>
				<stop  offset="1" style="stop-color:#801C56"/>
			</linearGradient>
			<path id="XMLID_1219_" class="st11" d="M456.3,486.4c0,0,1.7,1,1.7,6.3c0,3.5-2.4,6.9-2.4,6.9l29-21.3c0,0,2-2.4,2.1-5.8
				c0.1-5.1-3.4-6.9-3.4-6.9L456.3,486.4z"/>
		</g>
		<g id="XMLID_1199_">
			<linearGradient id="XMLID_39_" gradientUnits="userSpaceOnUse" x1="407.2803" y1="470.23" x2="490.3988" y2="470.23">
				<stop  offset="0" style="stop-color:#547F86"/>
				<stop  offset="1" style="stop-color:#085375"/>
			</linearGradient>
			<path id="XMLID_1212_" class="st12" d="M490.2,459.6l-30.2,23.7l-49.2-4.5c0,0-3.2-1.9-3.5-6.4c-0.4-5.5,2.2-8.4,2.2-8.4l32-6.9
				l48.9,0.4L490.2,459.6z"/>
			<linearGradient id="XMLID_40_" gradientUnits="userSpaceOnUse" x1="459.611" y1="464.3309" x2="414.2305" y2="464.3309">
				<stop  offset="0" style="stop-color:#CFDFE5"/>
				<stop  offset="1" style="stop-color:#E9ECEE"/>
			</linearGradient>
			<path id="XMLID_1211_" class="st13" d="M488.3,457.9l-28.5,22.3c0,0-20-1.6-33.7-2.8c0,0,0,0,0,0c-6.7-0.6-12-1-12.7-1.2
				c-2-0.4-3.5-3.4-3-6.5c0.1-0.8,0.3-1.4,0.6-1.9c0.8-1.6,2.3-2.2,4.2-2.2c0.8,0,5.6,0.4,11.9,0.8c13.3,1,33,2.5,33,2.5l1.7-1.4
				l24.2-19.1c0,0-0.4,1.4-0.5,3.1c-0.1,0.9-0.1,1.8,0.1,2.6C486.2,456.5,488.3,457.9,488.3,457.9z"/>
			<linearGradient id="XMLID_41_" gradientUnits="userSpaceOnUse" x1="408.7159" y1="455.3484" x2="490.5429" y2="455.3484">
				<stop  offset="0" style="stop-color:#547F86"/>
				<stop  offset="1" style="stop-color:#085375"/>
			</linearGradient>
			<path id="XMLID_1210_" class="st14" d="M408.9,466.8c0,0,0.8-2.1,5.4-1.2c4.7,0.9,46.4,4.5,46.4,4.5l29.4-24c0,0,0.9-1.7-0.1-1.7
				s-46.9-3.7-48.5-3.8c-1.6-0.1-3,0.3-5,1.8s-25.9,20.2-27.1,21.6C408.2,465.3,408.9,466.8,408.9,466.8z"/>
			<linearGradient id="XMLID_42_" gradientUnits="userSpaceOnUse" x1="423.5749" y1="471.5475" x2="458.3687" y2="471.5475">
				<stop  offset="0" style="stop-color:#B7D6E4"/>
				<stop  offset="1" style="stop-color:#E9ECEE"/>
			</linearGradient>
			<path id="XMLID_1209_" class="st15" d="M425.2,473.8c0.1,1.4,0.4,2.6,0.9,3.6c-6.7-0.6-12-1-12.7-1.2c-2-0.4-3.5-3.4-3-6.5
				c0.5-3.1,2.3-4.2,4.8-4.1c0.8,0,5.6,0.4,11.9,0.8C426,468.2,425,470.6,425.2,473.8z"/>
			<linearGradient id="XMLID_43_" gradientUnits="userSpaceOnUse" x1="496.0276" y1="449.3156" x2="466.6768" y2="469.0432">
				<stop  offset="0" style="stop-color:#CFDFE5"/>
				<stop  offset="1" style="stop-color:#E9ECEE"/>
			</linearGradient>
			<path id="XMLID_1207_" class="st16" d="M488.3,457.9l-28.5,22.3c0,0-1.2-5.6,0.9-10.1c0.4-0.7,0.8-1.6,1.2-2.5l23.9-18
				c0,0-0.6,2.2-0.1,4.5C486.2,456.5,488.3,457.9,488.3,457.9z"/>
			<linearGradient id="XMLID_44_" gradientUnits="userSpaceOnUse" x1="411.1235" y1="460.8736" x2="485.9028" y2="460.8736">
				<stop  offset="0" style="stop-color:#B7D6E4"/>
				<stop  offset="1" style="stop-color:#E9ECEE"/>
			</linearGradient>
			<path id="XMLID_1206_" class="st17" d="M485.9,449.6c0,0-0.4,1.4-0.5,3.1l-25.4,19.4c0,0-31.7-3.3-39.7-4.1
				c-4.7-0.5-7.6-0.4-9.2-0.1c0.8-1.6,2.3-2.2,4.2-2.2c0.8,0,5.6,0.4,11.9,0.8c13.3,1,33,2.5,33,2.5l1.7-1.4L485.9,449.6z"/>
		</g>
		<g id="XMLID_1197_">
			<linearGradient id="XMLID_45_" gradientUnits="userSpaceOnUse" x1="404.0184" y1="455.6188" x2="487.137" y2="455.6188">
				<stop  offset="0.1385" style="stop-color:#F7B142"/>
				<stop  offset="1" style="stop-color:#EF794A"/>
			</linearGradient>
			<path id="XMLID_1204_" class="st18" d="M487,445l-30.2,23.7l-49.2-4.5c0,0-3.2-1.9-3.5-6.4c-0.4-5.5,2.2-8.4,2.2-8.4l32-6.9
				l48.9,0.4L487,445z"/>
			<linearGradient id="XMLID_46_" gradientUnits="userSpaceOnUse" x1="474.273" y1="449.2345" x2="424.6139" y2="454.5273">
				<stop  offset="0" style="stop-color:#B7D6E4"/>
				<stop  offset="1" style="stop-color:#E9ECEE"/>
			</linearGradient>
			<path id="XMLID_1208_" class="st19" d="M485.1,443.3l-28.5,22.3c0,0-20-1.6-33.7-2.8c0,0,0,0,0,0c-6.7-0.6-12-1-12.7-1.2
				c-2-0.4-3.5-3.4-3-6.5c0.1-0.8,0.3-1.4,0.6-1.9c0.8-1.6,2.3-2.2,4.2-2.2c0.8,0,5.6,0.4,11.9,0.8c13.3,1,33,2.5,33,2.5l1.7-1.4
				l24.2-19.1c0,0-0.4,1.4-0.5,3.1c-0.1,0.9-0.1,1.8,0.1,2.6C483,441.9,485.1,443.3,485.1,443.3z"/>
			<linearGradient id="XMLID_47_" gradientUnits="userSpaceOnUse" x1="415.5999" y1="457.0004" x2="376.0941" y2="458.5558">
				<stop  offset="0" style="stop-color:#B7D6E4"/>
				<stop  offset="1" style="stop-color:#E9ECEE"/>
			</linearGradient>
			<path id="XMLID_1203_" class="st20" d="M422,459.2c0.1,1.4,0.4,2.6,0.9,3.6c-6.7-0.6-12-1-12.7-1.2c-2-0.4-3.5-3.4-3-6.5
				c0.5-3.1,2.3-4.2,4.8-4.1c0.8,0,5.6,0.4,11.9,0.8C422.8,453.6,421.8,456,422,459.2z"/>
			<linearGradient id="XMLID_48_" gradientUnits="userSpaceOnUse" x1="441.2193" y1="467.5833" x2="458.6446" y2="456.6618">
				<stop  offset="0" style="stop-color:#B7D6E4"/>
				<stop  offset="1" style="stop-color:#E9ECEE"/>
			</linearGradient>
			<path id="XMLID_1202_" class="st21" d="M485.1,443.3l-28.5,22.3c0,0-1.2-5.6,0.9-10.1c0.4-0.7,0.8-1.6,1.2-2.5l24.2-19.1
				c0,0-0.9,3.3-0.4,5.7C483,441.9,485.1,443.3,485.1,443.3z"/>
			<linearGradient id="XMLID_49_" gradientUnits="userSpaceOnUse" x1="445.3732" y1="442.116" x2="445.3732" y2="429.0391">
				<stop  offset="0" style="stop-color:#B7D6E4"/>
				<stop  offset="1" style="stop-color:#E9ECEE"/>
			</linearGradient>
			<path id="XMLID_1205_" class="st22" d="M482.9,433.8c0,0-0.4,1.4-0.5,3.1l-25.6,20.6c0,0-31.7-3.3-39.7-4.1
				c-4.7-0.5-7.6-0.4-9.2-0.1c0.8-1.6,2.3-2.2,4.2-2.2c0.8,0,5.6,0.4,11.9,0.8c13.3,1,33,2.5,33,2.5l1.7-1.4L482.9,433.8z"/>
			<linearGradient id="XMLID_50_" gradientUnits="userSpaceOnUse" x1="418.5399" y1="433.6717" x2="470.6908" y2="447.4682">
				<stop  offset="0.1385" style="stop-color:#F7B142"/>
				<stop  offset="1" style="stop-color:#EF794A"/>
			</linearGradient>
			<path id="XMLID_1195_" class="st23" d="M405.6,452.2c0,0,0.8-2.1,5.4-1.2c4.7,0.9,46.4,4.5,46.4,4.5l29.4-24c0,0,0.9-1.7-0.1-1.7
				c-0.9,0-46.9-3.7-48.5-3.8s-3,0.3-5,1.8s-25.9,20.2-27.1,21.6C405,450.7,405.6,452.2,405.6,452.2z"/>
			<linearGradient id="XMLID_51_" gradientUnits="userSpaceOnUse" x1="428.4082" y1="414.1121" x2="454.8975" y2="437.0143">
				<stop  offset="0.1385" style="stop-color:#F7B142"/>
				<stop  offset="1" style="stop-color:#EF794A"/>
			</linearGradient>
			<polygon id="XMLID_1194_" class="st24" points="430.3,437.6 441.2,429.7 474.6,432.2 464.2,440.6 			"/>
			<linearGradient id="XMLID_52_" gradientUnits="userSpaceOnUse" x1="435.9759" y1="428.5788" x2="486.0691" y2="428.5788">
				<stop  offset="0.1385" style="stop-color:#F7B142"/>
				<stop  offset="1" style="stop-color:#EF794A"/>
			</linearGradient>
			<path id="XMLID_1196_" class="st25" d="M436,426.9c0,0,0.5-0.5,3-0.4c2.5,0.2,47.1,3.6,47.1,3.6s-2.9,0.5-5.4,0.5
				C478.1,430.7,437.5,426.8,436,426.9z"/>
		</g>
	</g>
</g>
<g id="ORNAMENT_1">
	<g id="XMLID_2215_">
		<path id="XMLID_1450_" class="st26" d="M349.4,105.9c-3.6,0-6.6,2.9-6.6,6.6c0-3.6-2.9-6.6-6.6-6.6c3.6,0,6.6-2.9,6.6-6.6
			C342.8,102.9,345.8,105.9,349.4,105.9z"/>
		<path id="XMLID_1439_" class="st26" d="M545.3,166.5c-2.2,0-4.1,1.8-4.1,4.1c0-2.2-1.8-4.1-4.1-4.1c2.2,0,4.1-1.8,4.1-4.1
			C541.2,164.6,543.1,166.5,545.3,166.5z"/>
		<path id="XMLID_2507_" class="st26" d="M472.7,367.1c-3.6,0-6.6,2.9-6.6,6.6c0-3.6-2.9-6.6-6.6-6.6c3.6,0,6.6-2.9,6.6-6.6
			C466.1,364.2,469,367.1,472.7,367.1z"/>
		<path id="XMLID_2_" class="st26" d="M549.7,310.8c-4.7,0-8.6,3.8-8.6,8.6c0-4.7-3.8-8.6-8.6-8.6c4.7,0,8.6-3.8,8.6-8.6
			C541.1,306.9,544.9,310.8,549.7,310.8z"/>
		<path id="XMLID_4_" class="st26" d="M536.7,364.4c-2.7,0-4.9,2.2-4.9,4.9c0-2.7-2.2-4.9-4.9-4.9c2.7,0,4.9-2.2,4.9-4.9
			C531.8,362.2,534,364.4,536.7,364.4z"/>
		<path id="XMLID_3_" class="st26" d="M534.3,103.1c-3.6,0-6.6,2.9-6.6,6.6c0-3.6-2.9-6.6-6.6-6.6c3.6,0,6.6-2.9,6.6-6.6
			C527.8,100.2,530.7,103.1,534.3,103.1z"/>
		<path id="XMLID_2226_" class="st26" d="M169.7,139.9c-6.1,0-11,4.9-11,11c0-6.1-4.9-11-11-11c6.1,0,11-4.9,11-11
			C158.7,135,163.7,139.9,169.7,139.9z"/>
		<path id="XMLID_2232_" class="st26" d="M178.5,226.1c-3.6,0-6.6,2.9-6.6,6.6c0-3.6-2.9-6.6-6.6-6.6c3.6,0,6.6-2.9,6.6-6.6
			C171.9,223.2,174.8,226.1,178.5,226.1z"/>
		<path id="XMLID_2227_" class="st26" d="M143.2,114.4c-3.3,0-5.9,2.6-5.9,5.9c0-3.3-2.6-5.9-5.9-5.9c3.3,0,5.9-2.7,5.9-5.9
			C137.2,111.8,139.9,114.4,143.2,114.4z"/>
		<path id="XMLID_2225_" class="st26" d="M469.9,116c-1.9,0-3.5,1.5-3.5,3.5c0-1.9-1.5-3.5-3.5-3.5c1.9,0,3.5-1.6,3.5-3.5
			C466.5,114.4,468,116,469.9,116z"/>
		<path id="XMLID_1442_" class="st26" d="M346.3,356.7c-3,0-5.4,2.4-5.4,5.4c0-3-2.4-5.4-5.4-5.4c3,0,5.4-2.4,5.4-5.4
			C340.9,354.3,343.3,356.7,346.3,356.7z"/>
	</g>
</g>
<g id="ORNAMENT_2">
	<g id="XMLID_1126_">
		<circle id="XMLID_2808_" class="st0" cx="119.1" cy="165.8" r="3.1"/>
		<circle id="XMLID_2810_" class="st0" cx="170.1" cy="182.3" r="4.6"/>
		<circle id="XMLID_2807_" class="st0" cx="303.8" cy="90.1" r="3.3"/>
		<circle id="XMLID_2823_" class="st0" cx="485.9" cy="116.6" r="2.2"/>
		<circle id="XMLID_2805_" class="st0" cx="537.8" cy="238.5" r="2"/>
		<circle id="XMLID_2824_" class="st0" cx="502.3" cy="359.7" r="4.2"/>
		<circle id="XMLID_2809_" class="st0" cx="541.7" cy="268.2" r="2.9"/>
		<circle id="XMLID_2825_" class="st0" cx="520" cy="338.3" r="1.8"/>
		<circle id="XMLID_2803_" class="st0" cx="527.5" cy="255.1" r="1.3"/>
		<circle id="XMLID_2802_" class="st0" cx="253.6" cy="356.3" r="4.5"/>
		<circle id="XMLID_2801_" class="st0" cx="286.1" cy="351.7" r="1.6"/>
		<circle id="XMLID_2800_" class="st0" cx="452.9" cy="110.1" r="1.8"/>
		<circle id="XMLID_2799_" class="st0" cx="437.4" cy="99.8" r="2.5"/>
		<circle id="XMLID_2798_" class="st0" cx="268.7" cy="105" r="2.6"/>
		<circle id="XMLID_1307_" class="st0" cx="161" cy="238.6" r="3.2"/>
	</g>
</g>
<g id="ORNAMENT_3">
	<g id="XMLID_1242_">
		<g id="XMLID_1239_">
			<polygon id="XMLID_1228_" class="st0" points="384,376.7 398.8,364 400.4,369.8 			"/>
			<polygon id="XMLID_1230_" class="st0" points="383.1,386.7 416.9,386.2 415.4,392.4 			"/>
			<polygon id="XMLID_1231_" class="st0" points="381.5,396.8 396.5,402 394.8,405 			"/>
		</g>
		<g id="XMLID_1227_">
			<polygon id="XMLID_1237_" class="st0" points="338.5,369.6 319.7,360 318.3,365.2 			"/>
			<polygon id="XMLID_1235_" class="st0" points="338.3,379.7 299.4,374.9 300.8,379.8 			"/>
			<polygon id="XMLID_1234_" class="st0" points="336.2,386.7 314,388.7 314.9,391.6 			"/>
			<polygon id="XMLID_1238_" class="st0" points="333.4,395.5 321.7,398.6 322.6,401.5 			"/>
		</g>
	</g>
</g>
<g id="SCREEN">
	<g id="XMLID_23_">
		<g id="XMLID_2788_">
			<g id="XMLID_2827_">
				<linearGradient id="XMLID_53_" gradientUnits="userSpaceOnUse" x1="469.9907" y1="379.1318" x2="250.9268" y2="92.5997">
					<stop  offset="0" style="stop-color:#E0EDF3"/>
					<stop  offset="1" style="stop-color:#FAF1F1"/>
				</linearGradient>
				<path id="XMLID_2842_" class="st27" d="M510.5,143.6V315c0,7.2-5.8,13-13,13H213.4c-7.2,0-13-5.8-13-13V143.6
					c0-7.2,5.8-13,13-13h284.1C504.7,130.5,510.5,136.4,510.5,143.6z"/>
				<g id="XMLID_1170_">
					<linearGradient id="XMLID_54_" gradientUnits="userSpaceOnUse" x1="465.3649" y1="173.7417" x2="511.5245" y2="252.5509">
						<stop  offset="0" style="stop-color:#E0EDF3"/>
						<stop  offset="1" style="stop-color:#FAF1F1"/>
					</linearGradient>
					<path id="XMLID_2839_" class="st28" d="M510.5,143.6v76.6c-5.7,2.2-13.2,4.3-21.9,5.2c-18.1,1.8-35.5-10.1-38-38.6
						c-2.5-28.4-31-26.7-51.2-29c-12.4-1.4-18.3-16.1-21-27.3h119C504.7,130.5,510.5,136.4,510.5,143.6z"/>
					<linearGradient id="XMLID_55_" gradientUnits="userSpaceOnUse" x1="524.645" y1="216.5084" x2="444.7099" y2="114.6193">
						<stop  offset="0" style="stop-color:#E0EDF3"/>
						<stop  offset="1" style="stop-color:#FAF1F1"/>
					</linearGradient>
					<path id="XMLID_2836_" class="st29" d="M510.5,143.6v61.3c-0.2,0.1-0.5,0.2-0.7,0.3c-17.2,5.9-32.4-8.7-34.9-37.2
						c-2.5-28.4-31-26.7-51.2-29c-5.6-0.6-9.9-4-13.1-8.5h86.9C504.7,130.5,510.5,136.4,510.5,143.6z"/>
				</g>
				<linearGradient id="XMLID_56_" gradientUnits="userSpaceOnUse" x1="201.3953" y1="358.1326" x2="263.3168" y2="297.8998">
					<stop  offset="0" style="stop-color:#E0EDF3"/>
					<stop  offset="1" style="stop-color:#FAF1F1"/>
				</linearGradient>
				<path id="XMLID_2838_" class="st30" d="M389,328H213.4c-7.2,0-13-5.8-13-13V206.7c11.3-1.8,27.7-1.4,30.3,15
					c3.9,25.3-9,34.9,20.8,37.2c29.8,2.3,20.8,35.5,50.1,42.2c29.3,6.8,49-20.8,70.4-1.7C385.1,311.2,388.4,321.7,389,328z"/>
			</g>
			<g id="XMLID_2828_">
				<linearGradient id="XMLID_57_" gradientUnits="userSpaceOnUse" x1="308.3326" y1="274.8237" x2="308.3326" y2="379.1663">
					<stop  offset="0" style="stop-color:#ACD5EE"/>
					<stop  offset="1" style="stop-color:#FAF1F1;stop-opacity:0"/>
				</linearGradient>
				<path id="XMLID_2884_" class="st31" d="M321.1,151.9h-25.4c-0.7,0-1.3,0.6-1.3,1.3c0,0.7,0.6,1.3,1.3,1.3h25.4
					c0.7,0,1.3-0.6,1.3-1.3C322.3,152.5,321.8,151.9,321.1,151.9z"/>
				<linearGradient id="XMLID_58_" gradientUnits="userSpaceOnUse" x1="305.5627" y1="274.8237" x2="305.5627" y2="379.1663">
					<stop  offset="0" style="stop-color:#ACD5EE"/>
					<stop  offset="1" style="stop-color:#FAF1F1;stop-opacity:0"/>
				</linearGradient>
				<path id="XMLID_2885_" class="st32" d="M315.5,158.9h-19.9c-0.7,0-1.3,0.6-1.3,1.3s0.6,1.3,1.3,1.3h19.9c0.7,0,1.3-0.6,1.3-1.3
					S316.2,158.9,315.5,158.9z"/>
				<linearGradient id="XMLID_59_" gradientUnits="userSpaceOnUse" x1="305.5627" y1="274.8237" x2="305.5627" y2="379.1663">
					<stop  offset="0" style="stop-color:#ACD5EE"/>
					<stop  offset="1" style="stop-color:#FAF1F1;stop-opacity:0"/>
				</linearGradient>
				<path id="XMLID_2886_" class="st33" d="M315.5,165.8h-19.9c-0.7,0-1.3,0.6-1.3,1.3c0,0.7,0.6,1.3,1.3,1.3h19.9
					c0.7,0,1.3-0.6,1.3-1.3C316.8,166.3,316.2,165.8,315.5,165.8z"/>
				<linearGradient id="XMLID_60_" gradientUnits="userSpaceOnUse" x1="250.0078" y1="274.8237" x2="250.0078" y2="379.1663">
					<stop  offset="0" style="stop-color:#ACD5EE"/>
					<stop  offset="1" style="stop-color:#FAF1F1;stop-opacity:0"/>
				</linearGradient>
				<path id="XMLID_2890_" class="st34" d="M250,210.8c17.2,0,31.2-14,31.2-31.2c0-6.1-1.7-11.8-4.8-16.6
					c-5.5-8.8-15.3-14.6-26.4-14.6c-1.3,0-2.7,0.1-4,0.3c-15.4,1.9-27.2,15-27.2,30.9C218.8,196.9,232.8,210.8,250,210.8z
					 M248.8,173.4c0.4-0.1,0.8-0.1,1.2-0.1c2.8,0,5.1,1.8,6,4.3c0.2,0.6,0.3,1.3,0.3,2.1c0,3.5-2.8,6.3-6.3,6.3
					c-3.5,0-6.3-2.8-6.3-6.3C243.7,176.6,245.9,174,248.8,173.4z"/>
				<linearGradient id="XMLID_61_" gradientUnits="userSpaceOnUse" x1="254.2812" y1="276.5125" x2="254.2812" y2="380.8551">
					<stop  offset="0" style="stop-color:#ACD5EE"/>
					<stop  offset="1" style="stop-color:#FAF1F1;stop-opacity:0"/>
				</linearGradient>
				<path id="XMLID_2891_" class="st35" d="M286.2,221.7h-63.8c-2.7,0-4.8,2.2-4.8,4.8v23.4v19.1v0c0,2.7,2.2,4.8,4.8,4.8h0h63.7h0
					c2.7,0,4.8-2.2,4.8-4.8v0v-27.7v-14.9C291,223.8,288.8,221.7,286.2,221.7z"/>
				<linearGradient id="XMLID_62_" gradientUnits="userSpaceOnUse" x1="251.2911" y1="274.8237" x2="251.2911" y2="379.1663">
					<stop  offset="0" style="stop-color:#ACD5EE"/>
					<stop  offset="1" style="stop-color:#FAF1F1;stop-opacity:0"/>
				</linearGradient>
				<path id="XMLID_2892_" class="st36" d="M279.2,293.4h-17.5h-37.1h-1.4c-0.6,0-1.1,0.5-1.1,1.1v0.4c0,0.6,0.5,1.1,1.1,1.1h1.4
					h37.1h17.5c0.7,0,1.3-0.6,1.3-1.3C280.6,294,280,293.4,279.2,293.4z"/>
				<linearGradient id="XMLID_63_" gradientUnits="userSpaceOnUse" x1="251.2911" y1="274.8237" x2="251.2911" y2="379.1663">
					<stop  offset="0" style="stop-color:#ACD5EE"/>
					<stop  offset="1" style="stop-color:#FAF1F1;stop-opacity:0"/>
				</linearGradient>
				<path id="XMLID_2893_" class="st37" d="M279.2,301.2h-17.5h-37.1h-1.4c-0.6,0-1.1,0.5-1.1,1.1v0.4c0,0.6,0.5,1.1,1.1,1.1h1.4
					h37.1h17.5c0.7,0,1.3-0.6,1.3-1.3C280.6,301.8,280,301.2,279.2,301.2z"/>
				<linearGradient id="XMLID_64_" gradientUnits="userSpaceOnUse" x1="240.0535" y1="274.8237" x2="240.0535" y2="379.1663">
					<stop  offset="0" style="stop-color:#ACD5EE"/>
					<stop  offset="1" style="stop-color:#FAF1F1;stop-opacity:0"/>
				</linearGradient>
				<path id="XMLID_2894_" class="st38" d="M223.2,287.7h1.4h21.1h11c0.7,0,1.3-0.6,1.3-1.3s-0.6-1.3-1.3-1.3h-11h-21.1h-1.4
					c-0.6,0-1.1,0.5-1.1,1.1v0.4C222,287.2,222.5,287.7,223.2,287.7z"/>
				<linearGradient id="XMLID_65_" gradientUnits="userSpaceOnUse" x1="336.109" y1="274.8237" x2="336.109" y2="379.1663">
					<stop  offset="0" style="stop-color:#ACD5EE"/>
					<stop  offset="1" style="stop-color:#FAF1F1;stop-opacity:0"/>
				</linearGradient>
				<circle id="XMLID_2895_" class="st39" cx="336.1" cy="183.6" r="5.5"/>
				<linearGradient id="XMLID_66_" gradientUnits="userSpaceOnUse" x1="218.6506" y1="274.8237" x2="218.6506" y2="379.1663">
					<stop  offset="0" style="stop-color:#ACD5EE"/>
					<stop  offset="1" style="stop-color:#FAF1F1;stop-opacity:0"/>
				</linearGradient>
				<circle id="XMLID_2896_" class="st40" cx="218.7" cy="146.4" r="3.2"/>
				<linearGradient id="XMLID_67_" gradientUnits="userSpaceOnUse" x1="306.0012" y1="274.683" x2="306.0012" y2="379.0256">
					<stop  offset="0" style="stop-color:#ACD5EE"/>
					<stop  offset="1" style="stop-color:#FAF1F1;stop-opacity:0"/>
				</linearGradient>
				<circle id="XMLID_2897_" class="st41" cx="306" cy="238.7" r="3.3"/>
				<linearGradient id="XMLID_68_" gradientUnits="userSpaceOnUse" x1="277.2829" y1="274.3546" x2="277.2829" y2="378.6972">
					<stop  offset="0" style="stop-color:#ACD5EE"/>
					<stop  offset="1" style="stop-color:#FAF1F1;stop-opacity:0"/>
				</linearGradient>
				<circle id="XMLID_2898_" class="st42" cx="277.3" cy="207.4" r="2.2"/>
			</g>
		</g>
		<g id="XMLID_2793_">
			<g id="XMLID_1139_">
				<path id="XMLID_1138_" class="st43" d="M319.3,153.7h-25.4c-0.7,0-1.3-0.6-1.3-1.3l0,0c0-0.7,0.6-1.3,1.3-1.3h25.4
					c0.7,0,1.3,0.6,1.3,1.3l0,0C320.6,153.1,320,153.7,319.3,153.7z"/>
				<path id="XMLID_1140_" class="st43" d="M313.8,160.6h-19.9c-0.7,0-1.3-0.6-1.3-1.3v0c0-0.7,0.6-1.3,1.3-1.3h19.9
					c0.7,0,1.3,0.6,1.3,1.3v0C315.1,160,314.5,160.6,313.8,160.6z"/>
				<path id="XMLID_1142_" class="st43" d="M313.8,167.5h-19.9c-0.7,0-1.3-0.6-1.3-1.3l0,0c0-0.7,0.6-1.3,1.3-1.3h19.9
					c0.7,0,1.3,0.6,1.3,1.3l0,0C315.1,166.9,314.5,167.5,313.8,167.5z"/>
			</g>
			<g id="XMLID_696_">
				<g id="XMLID_1164_">
					<path id="XMLID_1160_" class="st43" d="M255,286.8h-32.1c-0.7,0-1.3-0.6-1.3-1.3l0,0c0-0.7,0.6-1.3,1.3-1.3H255
						c0.7,0,1.3,0.6,1.3,1.3l0,0C256.3,286.2,255.7,286.8,255,286.8z"/>
					<path id="XMLID_1165_" class="st43" d="M277.5,295.3h-54.6c-0.7,0-1.3-0.6-1.3-1.3l0,0c0-0.7,0.6-1.3,1.3-1.3h54.6
						c0.7,0,1.3,0.6,1.3,1.3l0,0C278.8,294.7,278.2,295.3,277.5,295.3z"/>
					<path id="XMLID_1166_" class="st43" d="M277.5,303.1h-54.6c-0.7,0-1.3-0.6-1.3-1.3l0,0c0-0.7,0.6-1.3,1.3-1.3h54.6
						c0.7,0,1.3,0.6,1.3,1.3l0,0C278.8,302.5,278.2,303.1,277.5,303.1z"/>
				</g>
				<g id="XMLID_2789_">
					<path id="XMLID_2792_" class="st44" d="M244,286.8h-22.5c-0.6,0-1.1-0.5-1.1-1.1v-0.4c0-0.6,0.5-1.1,1.1-1.1H244
						c0.6,0,1.1,0.5,1.1,1.1v0.4C245.1,286.3,244.6,286.8,244,286.8z"/>
					<path id="XMLID_2791_" class="st44" d="M260,295.3h-38.5c-0.6,0-1.1-0.5-1.1-1.1v-0.4c0-0.6,0.5-1.1,1.1-1.1H260
						c0.6,0,1.1,0.5,1.1,1.1v0.4C261.1,294.8,260.6,295.3,260,295.3z"/>
					<path id="XMLID_2790_" class="st44" d="M260,303.1h-38.5c-0.6,0-1.1-0.5-1.1-1.1v-0.4c0-0.6,0.5-1.1,1.1-1.1H260
						c0.6,0,1.1,0.5,1.1,1.1v0.4C261.1,302.6,260.6,303.1,260,303.1z"/>
				</g>
			</g>
		</g>
	</g>
</g>
<g id="GRAPHIC_1">
	<g id="XMLID_1168_">
		<linearGradient id="XMLID_69_" gradientUnits="userSpaceOnUse" x1="263.7472" y1="122.4705" x2="186.5083" y2="403.5693">
			<stop  offset="0.1231" style="stop-color:#FFD65B"/>
			<stop  offset="0.9692" style="stop-color:#F7923A"/>
		</linearGradient>
		<path id="XMLID_1161_" class="st45" d="M274.7,162.2c-5.5-8.8-15.3-14.6-26.4-14.6c-1.3,0-2.7,0.1-4,0.3
			c-15.4,1.9-27.2,15-27.2,30.9c0,17.2,14,31.2,31.2,31.2c17.2,0,31.2-14,31.2-31.2C279.5,172.7,277.7,167,274.7,162.2z
			 M248.3,185.1c-3.5,0-6.3-2.8-6.3-6.3c0-3.1,2.2-5.6,5.1-6.2c0.4-0.1,0.8-0.1,1.2-0.1c2.8,0,5.1,1.8,6,4.3
			c0.2,0.6,0.3,1.3,0.3,2.1C254.6,182.3,251.8,185.1,248.3,185.1z"/>
		<linearGradient id="XMLID_70_" gradientUnits="userSpaceOnUse" x1="268.1087" y1="123.6689" x2="190.8698" y2="404.7678">
			<stop  offset="0.1126" style="stop-color:#26245A"/>
			<stop  offset="1" style="stop-color:#393B78"/>
		</linearGradient>
		<path id="XMLID_1154_" class="st46" d="M274.7,162.2l-20.4,14.5c-0.9-2.5-3.2-4.3-6-4.3c-0.4,0-0.8,0-1.2,0.1l-2.7-24.7
			c1.3-0.2,2.6-0.3,4-0.3C259.4,147.6,269.2,153.4,274.7,162.2z"/>
	</g>
</g>
<g id="GRAPHIC_2">
	<g id="XMLID_1167_">
		<linearGradient id="XMLID_71_" gradientUnits="userSpaceOnUse" x1="252.5455" y1="303.1556" x2="252.5455" y2="190.8722">
			<stop  offset="0.1126" style="stop-color:#26245A"/>
			<stop  offset="1" style="stop-color:#393B78"/>
		</linearGradient>
		<path id="XMLID_1163_" class="st47" d="M289.3,224v42.6c0,2.7-2.2,4.8-4.8,4.8h-63.8c-2.7,0-4.8-2.2-4.8-4.8V224
			c0-2.7,2.2-4.8,4.8-4.8h63.8C287.1,219.2,289.3,221.3,289.3,224z"/>
		<linearGradient id="XMLID_72_" gradientUnits="userSpaceOnUse" x1="252.5455" y1="211.9884" x2="252.5455" y2="282.4792">
			<stop  offset="0" style="stop-color:#24ACE3"/>
			<stop  offset="1" style="stop-color:#465A8C"/>
		</linearGradient>
		<path id="XMLID_1157_" class="st48" d="M289.3,238.9v27.7c0,2.7-2.2,4.9-4.9,4.9h-63.7c-2.7,0-4.9-2.2-4.9-4.9v-19.1
			c1-1.6,2.7-3.9,5.2-3.9c3.9,0,5.3,11.3,10.7,11.3s2.4-17.3,8.5-23.1c4.4-4.3,8.2,4.6,9,9.7c0.8,5.1,1.9,14.5,9.2,13.7
			c7.3-0.7,8.1-10,9.2-17.4c1.1-7.4,4.7-10.4,8.1-7.4c3.4,3.1,2.8,12.3,8.6,12.1C286.6,242.4,288.2,240.8,289.3,238.9z"/>
		<g id="XMLID_1145_">
			<g id="XMLID_1147_">
				<path id="XMLID_2787_" class="st49" d="M221.5,268.8c-0.7,0-1.3-0.6-1.3-1.3v-26.1c0-0.7,0.6-1.3,1.3-1.3s1.3,0.6,1.3,1.3v26.1
					C222.8,268.2,222.2,268.8,221.5,268.8z"/>
			</g>
			<g id="XMLID_1148_">
				<path id="XMLID_2784_" class="st49" d="M231.8,268.8c-0.7,0-1.3-0.6-1.3-1.3V246c0-0.7,0.6-1.3,1.3-1.3s1.3,0.6,1.3,1.3v21.5
					C233.1,268.2,232.5,268.8,231.8,268.8z"/>
			</g>
			<g id="XMLID_1149_">
				<path id="XMLID_2782_" class="st49" d="M242.1,268.8c-0.7,0-1.3-0.6-1.3-1.3v-42.9c0-0.7,0.6-1.3,1.3-1.3s1.3,0.6,1.3,1.3v42.9
					C243.4,268.2,242.8,268.8,242.1,268.8z"/>
			</g>
			<g id="XMLID_1151_">
				<path id="XMLID_2780_" class="st49" d="M252.4,268.8c-0.7,0-1.3-0.6-1.3-1.3v-21.7c0-0.7,0.6-1.3,1.3-1.3s1.3,0.6,1.3,1.3v21.7
					C253.7,268.2,253.1,268.8,252.4,268.8z"/>
			</g>
			<g id="XMLID_1153_">
				<path id="XMLID_2779_" class="st49" d="M262.7,268.8c-0.7,0-1.3-0.6-1.3-1.3v-23c0-0.7,0.6-1.3,1.3-1.3s1.3,0.6,1.3,1.3v23
					C263.9,268.2,263.4,268.8,262.7,268.8z"/>
			</g>
			<g id="XMLID_1155_">
				<path id="XMLID_2778_" class="st49" d="M273,268.8c-0.7,0-1.3-0.6-1.3-1.3v-42.2c0-0.7,0.6-1.3,1.3-1.3s1.3,0.6,1.3,1.3v42.2
					C274.2,268.2,273.7,268.8,273,268.8z"/>
			</g>
			<g id="XMLID_1156_">
				<path id="XMLID_1169_" class="st49" d="M283.3,268.8c-0.7,0-1.3-0.6-1.3-1.3v-32.3c0-0.7,0.6-1.3,1.3-1.3s1.3,0.6,1.3,1.3v32.3
					C284.5,268.2,284,268.8,283.3,268.8z"/>
			</g>
		</g>
	</g>
</g>
<g id="ORNAMENT_4">
	<g id="XMLID_10_">
		<polygon id="XMLID_1244_" class="st26" points="118.3,263.8 104,238.6 113.7,234.8 		"/>
		<polygon id="XMLID_12_" class="st26" points="106.1,278.3 85.7,279.5 85.9,271.5 		"/>
		<polygon id="XMLID_1245_" class="st26" points="109,269 82.7,241.1 76.2,249.5 		"/>
	</g>
</g>
<g id="LINE">
	<g id="XMLID_1240_">
		<rect id="XMLID_1171_" x="226.7" y="340.3" class="st0" width="255.1" height="2.9"/>
		<linearGradient id="XMLID_73_" gradientUnits="userSpaceOnUse" x1="226.728" y1="341.7237" x2="376.597" y2="341.7237">
			<stop  offset="0" style="stop-color:#463254"/>
			<stop  offset="1" style="stop-color:#291433"/>
		</linearGradient>
		<rect id="XMLID_1172_" x="226.7" y="340.3" class="st50" width="149.9" height="2.9"/>
		<circle id="XMLID_1173_" class="st51" cx="374.8" cy="340.9" r="6.3"/>
	</g>
</g>
<g id="F_RIGHT_ARM_1">
	<g id="XMLID_2769_">
		<linearGradient id="XMLID_74_" gradientUnits="userSpaceOnUse" x1="372.9091" y1="212.5617" x2="396.6505" y2="235.67">
			<stop  offset="0.1179" style="stop-color:#EE5A77"/>
			<stop  offset="1" style="stop-color:#801C56"/>
		</linearGradient>
		<path id="XMLID_1130_" class="st52" d="M401,226c-4.4,4.4-10.1,9.3-19,16.1c-6.7,5.2-16.9,11.3-23.2,8.3c-0.9-0.4-1.6-1-2.3-1.8
			c-5.7-6.5-2-10.7,3.1-17.2c4.2-5.3,38-37.7,39.6-38.1c4.4-1.4,8-2.3,11.6,5.6c0.4,0.8,0.7,1.6,1.1,2.6
			C415.8,212.4,405.8,221.3,401,226z"/>
		<linearGradient id="XMLID_75_" gradientUnits="userSpaceOnUse" x1="333.6172" y1="202.1806" x2="391.4409" y2="227.7158">
			<stop  offset="0.1179" style="stop-color:#EE5A77"/>
			<stop  offset="1" style="stop-color:#801C56"/>
		</linearGradient>
		<path id="XMLID_1128_" class="st53" d="M401,226c-4.4,4.4-10.1,9.3-19,16.1c-6.7,5.2-16.9,11.3-23.2,8.3c4-2.7,8.8-6.8,15.8-11.9
			c15.8-11.4,31.8-33.2,36.1-39.6c0.4,0.8,0.7,1.6,1.1,2.6C415.8,212.4,405.8,221.3,401,226z"/>
	</g>
</g>
<g id="F_RIGHT_ARM_2">
	<g id="XMLID_1113_">
		<g id="XMLID_1112_">
			<g id="XMLID_1129_">
				<linearGradient id="XMLID_76_" gradientUnits="userSpaceOnUse" x1="306.3455" y1="180.97" x2="330.8783" y2="207.0856">
					<stop  offset="0" style="stop-color:#C66B50"/>
					<stop  offset="1" style="stop-color:#7B452B"/>
				</linearGradient>
				<path id="XMLID_1111_" class="st54" d="M333,203.5c0,0-3.1-4.1-3.2-4.8c-0.1-0.7-2.9-5.4-4-6.6s-4.7-0.4-6.6-1.3
					c-1.9-0.9-3.1-0.6-3.4,1s-1.9,6-1.1,7.2c0.8,1.3,4.2,4.8,6.6,5.7c1.7,0.6,3.7,2,3.9,2.3c0.2,0.2,1.7,2.2,1.7,2.2L333,203.5z"/>
				<linearGradient id="XMLID_77_" gradientUnits="userSpaceOnUse" x1="309.0664" y1="178.4139" x2="333.5992" y2="204.5295">
					<stop  offset="0" style="stop-color:#C66B50"/>
					<stop  offset="1" style="stop-color:#7B452B"/>
				</linearGradient>
				<path id="XMLID_1110_" class="st55" d="M323.6,191.3c0,0-6.7-6.5-8.2-8.4c-1.6-1.9-3.3-2.9-4-2.5c-0.7,0.4-0.2,2,1.9,4.7
					c2.1,2.8,6.5,7.4,6.5,7.4l4.4,2C324.2,194.4,325,193.6,323.6,191.3z"/>
				
					<linearGradient id="XMLID_78_" gradientUnits="userSpaceOnUse" x1="309.8976" y1="190.7969" x2="318.8665" y2="195.0704" gradientTransform="matrix(0.991 0.1339 -0.1339 0.991 31.336 -34.3858)">
					<stop  offset="0" style="stop-color:#C66B50"/>
					<stop  offset="1" style="stop-color:#7B452B"/>
				</linearGradient>
				<path id="XMLID_1120_" class="st56" d="M312.8,196.5c-0.6,1.1,0.1,1.6,1.9,2.8c1.7,1.3,4,1.8,5,1c1-0.8,0-1.9-1.4-2.8
					C316.8,196.7,313.7,195,312.8,196.5z"/>
				
					<linearGradient id="XMLID_79_" gradientUnits="userSpaceOnUse" x1="311.4039" y1="187.9983" x2="318.5791" y2="192.1662" gradientTransform="matrix(0.991 0.1339 -0.1339 0.991 31.336 -34.3858)">
					<stop  offset="0" style="stop-color:#C66B50"/>
					<stop  offset="1" style="stop-color:#7B452B"/>
				</linearGradient>
				<path id="XMLID_1123_" class="st57" d="M313.2,193.4c-0.7,1.2,0.1,1.7,2,3c1.9,1.3,4.3,1.9,5.3,1.1c1.1-0.9,0-2-1.5-3
					S314.1,191.7,313.2,193.4z"/>
				
					<linearGradient id="XMLID_80_" gradientUnits="userSpaceOnUse" x1="313.1647" y1="184.6904" x2="316.8051" y2="190.784" gradientTransform="matrix(0.991 0.1339 -0.1339 0.991 31.336 -34.3858)">
					<stop  offset="0" style="stop-color:#C66B50"/>
					<stop  offset="1" style="stop-color:#7B452B"/>
				</linearGradient>
				<path id="XMLID_1125_" class="st58" d="M313.7,190c-0.7,1.2,0.2,1.7,2.1,3.1c1.9,1.4,4.4,2,5.5,1.1c1.1-0.9,0-2-1.5-3
					C318.1,190.2,314.7,188.3,313.7,190z"/>
				<linearGradient id="XMLID_81_" gradientUnits="userSpaceOnUse" x1="321.2968" y1="183.836" x2="330.8989" y2="206.5223">
					<stop  offset="0" style="stop-color:#C66B50"/>
					<stop  offset="1" style="stop-color:#7B452B"/>
				</linearGradient>
				<path id="XMLID_1117_" class="st59" d="M324,201.8c-0.7-0.6-1.7-1.8-0.9-5.1c0.7-3.2,1.1-5.5,2.6-6.7s2.5-1.7,3.2-0.3
					s1.1,3.2,1.4,6.2c0.2,2.2,0.9,4.3-0.2,5.9C329.1,203.3,325.8,203.3,324,201.8z"/>
				<linearGradient id="XMLID_82_" gradientUnits="userSpaceOnUse" x1="320.31" y1="184.2536" x2="329.9121" y2="206.9399">
					<stop  offset="0" style="stop-color:#C66B50"/>
					<stop  offset="1" style="stop-color:#7B452B"/>
				</linearGradient>
				<path id="XMLID_1132_" class="st60" d="M327.9,188.8c-0.5-0.4-2.9-0.8-5.9-0.4c-3,0.3-4.9-0.5-5.3,0.5s1.3,2.1,3.7,2.7
					c2.5,0.6,4.1,1.1,5,0.9C326.4,192.3,329.7,190.4,327.9,188.8z"/>
			</g>
			<linearGradient id="XMLID_83_" gradientUnits="userSpaceOnUse" x1="324.8882" y1="209.2532" x2="338.835" y2="209.2532">
				<stop  offset="0.1126" style="stop-color:#26245A"/>
				<stop  offset="1" style="stop-color:#393B78"/>
			</linearGradient>
			<path id="XMLID_1098_" class="st61" d="M338.8,209.2l-4.6-7.4c0,0-3.7,0.9-6.3,4.1c-1.7,2.1-3,5.3-3,5.3l6.2,5.4
				c0,0,0.9-3,3.2-4.8C336.5,210,338.8,209.2,338.8,209.2z"/>
		</g>
		<g id="XMLID_2770_">
			<linearGradient id="XMLID_84_" gradientUnits="userSpaceOnUse" x1="337.2369" y1="207.1881" x2="388.7294" y2="279.9952">
				<stop  offset="0.1179" style="stop-color:#EE5A77"/>
				<stop  offset="1" style="stop-color:#801C56"/>
			</linearGradient>
			<path id="XMLID_2786_" class="st62" d="M371.7,241c-0.1,1.9-0.6,3.7-1.3,5.2c-0.7,1.4-1.7,2.6-2.8,3.4c0,0-0.1,0-0.1,0
				c-0.5,0.4-1,0.7-1.5,0.9c-0.2,0.1-0.3,0.2-0.4,0.2c-4.7,1.7-8.5-0.6-12.3-4.7c-3.8-4.1-23.4-29.8-23.5-30.1
				c-0.1-0.3,0.3-1.9,2.4-4c0.2-0.2,0.3-0.3,0.5-0.5c2.5-2.3,7.5-5.1,7.5-5.1s24.2,19.5,28.8,25.8
				C370.9,235.3,371.8,238.3,371.7,241z"/>
			<linearGradient id="XMLID_85_" gradientUnits="userSpaceOnUse" x1="330.8825" y1="198.0651" x2="371.4012" y2="263.6971">
				<stop  offset="0.1179" style="stop-color:#EE5A77"/>
				<stop  offset="1" style="stop-color:#801C56"/>
			</linearGradient>
			<path id="XMLID_2781_" class="st63" d="M371.7,241c-0.1,1.9-0.6,3.7-1.3,5.2c-0.7,1.4-1.7,2.6-2.8,3.4c0,0-0.1,0-0.1,0
				c-0.6,0.4-1.1,0.7-1.5,0.9c-0.2,0.1-0.3,0.2-0.4,0.2c-4.7,1.7-8.5-0.6-12.3-4.7c-3.8-4.1-24.7-28.5-24.8-28.8
				c-0.1-0.3,1.5-3.2,3.6-5.3c4.2,5.8,14.2,16.9,23.9,22.8C361.9,238.3,367.3,240.3,371.7,241z"/>
		</g>
	</g>
</g>
<g id="F_HAIR_1">
	<g id="XMLID_1_">
		<linearGradient id="XMLID_86_" gradientUnits="userSpaceOnUse" x1="422.2494" y1="141.9729" x2="421.5827" y2="202.6391">
			<stop  offset="0" style="stop-color:#304A54"/>
			<stop  offset="1" style="stop-color:#0F2935"/>
		</linearGradient>
		<path id="XMLID_21_" class="st64" d="M446.2,192.3c0,5.9-7.7,11.4-19.3,12.3c-17.7,1.5-30.7-13.1-29.5-20c1.2-7,7.1-7.9,7.1-7.9
			s-5.8-1.5-5.5-6.1c0-0.6,0.2-1.2,0.3-1.7c0.3-1.1,0.9-2,1.5-2.8c1.5-2,3.3-3.1,3.3-3.1s-6.7-4.1-5.7-6.6c0,0,0-0.1,0.1-0.1
			c1.4-2.5,5.5-1.7,5.5-1.7s0,0-0.1-0.1c0,0,0,0,0,0c-1-0.9-6.6-6.5-3-11.6c0.6-0.9,1.3-1.5,2-2c4-2.4,9.1,0.8,9.1,0.8
			s-5-5.9,0.3-7.2c5.3-1.3,9.8,4.3,9.8,4.3s6.4-4.2,11.3-0.6c4.9,3.6,2.4,7.1,2.4,7.1s9.1,0.3,8.1,10.5c0,0.2,0,0.4-0.1,0.5
			c-1.1,9.8-7.2,12-7.2,12s4.1,1,6.7,3.4c1.5,1.3,2.5,3,2.1,5.1c0,0,0,0,0,0c-1,6-6.3,5.3-6.3,5.3S446.2,186.3,446.2,192.3z"/>
		<linearGradient id="XMLID_87_" gradientUnits="userSpaceOnUse" x1="402.399" y1="152.7126" x2="406.649" y2="167.3376">
			<stop  offset="0" style="stop-color:#304A54"/>
			<stop  offset="1" style="stop-color:#0F2935"/>
		</linearGradient>
		<path id="XMLID_14_" class="st65" d="M410.6,161.9c0,0-5.3,5-9.9,4.1c1.5-2,3.3-3.1,3.3-3.1s-6.7-4.1-5.7-6.6
			c1.5,1.4,4.3,3.7,6.5,4.5C408.1,161.9,410.6,161.9,410.6,161.9z"/>
		<linearGradient id="XMLID_88_" gradientUnits="userSpaceOnUse" x1="448.3162" y1="157.2998" x2="437.9412" y2="168.9248">
			<stop  offset="0" style="stop-color:#304A54"/>
			<stop  offset="1" style="stop-color:#0F2935"/>
		</linearGradient>
		<path id="XMLID_17_" class="st66" d="M436.6,168.3c0,0,4.1,1,6.7,3.4c-4.9-1.6-14.5-1.3-14.5-1.3s1.3-0.9,6.5-4.5
			c3.6-2.5,6.8-7.1,8.5-9.6C442.7,166,436.6,168.3,436.6,168.3z"/>
		<linearGradient id="XMLID_89_" gradientUnits="userSpaceOnUse" x1="419.6112" y1="156.912" x2="421.4862" y2="182.912">
			<stop  offset="0" style="stop-color:#304A54"/>
			<stop  offset="1" style="stop-color:#0F2935"/>
		</linearGradient>
		<path id="XMLID_16_" class="st67" d="M446.2,192.3c0,5.9-7.7,11.4-19.3,12.3c-17.7,1.5-30.7-13.1-29.5-20c1.2-7,7.1-7.9,7.1-7.9
			s-5.8-1.5-5.5-6.1c0-0.6,0.2-1.2,0.3-1.7c2.5,1.2,6.3,2.6,11.6,4c11,2.8,27.5,5.4,33.4,4.3c0.5-0.1,0.9-0.2,1.3-0.2
			c-1,6-6.3,5.3-6.3,5.3S446.2,186.3,446.2,192.3z"/>
		<linearGradient id="XMLID_90_" gradientUnits="userSpaceOnUse" x1="401.4099" y1="144.9278" x2="405.2849" y2="156.6778">
			<stop  offset="0" style="stop-color:#304A54"/>
			<stop  offset="1" style="stop-color:#0F2935"/>
		</linearGradient>
		<path id="XMLID_18_" class="st68" d="M404.5,154.6c-0.2-0.1-0.5-0.2-0.7-0.3c0,0,0,0,0,0c-1-0.9-6.6-6.5-3-11.6
			c0.6-0.9,1.3-1.5,2-2c-0.4,1.2-0.7,2.8-0.7,4.9C402.2,149.9,404.3,154.3,404.5,154.6z"/>
	</g>
</g>
<g id="F_BODY">
	<g id="XMLID_25_">
		<g id="XMLID_2767_">
			<linearGradient id="XMLID_91_" gradientUnits="userSpaceOnUse" x1="422.9404" y1="338.3985" x2="422.9404" y2="281.7137">
				<stop  offset="0.1179" style="stop-color:#EE5A77"/>
				<stop  offset="1" style="stop-color:#801C56"/>
			</linearGradient>
			<path id="XMLID_1152_" class="st69" d="M462.3,327.9h-77.4c0,0-0.2-1.4-0.9-7.1c-0.2-1.1-0.3-2.5-0.4-4.1
				c-0.5-6.5-0.7-15.6-0.7-15.6c0.2-7.9,2.2-10.9,2.2-10.9s15.5,6,31.8,6c16.3,0,41.2-9.5,41.2-9.5s1.7,2.2,3.9,12.4
				c0,0.1,0.1,0.3,0.1,0.4C464.2,310.2,462.3,327.9,462.3,327.9z"/>
			<linearGradient id="XMLID_92_" gradientUnits="userSpaceOnUse" x1="422.3606" y1="365.411" x2="422.3606" y2="288.766">
				<stop  offset="0.1179" style="stop-color:#EE5A77"/>
				<stop  offset="1" style="stop-color:#801C56"/>
			</linearGradient>
			<path id="XMLID_1150_" class="st70" d="M461.9,299.2c-7.9,5.3-25.3,16.1-41.4,19.7c-16.7,3.7-31.1,0-36.9-2.2
				c-0.5-6.5-0.7-15.6-0.7-15.6c0.2-7.9,2.2-10.9,2.2-10.9s15.5,6,31.8,6c16.3,0,41.2-9.5,41.2-9.5S459.7,289,461.9,299.2z"/>
		</g>
		<g id="XMLID_1121_">
			<g id="XMLID_1095_">
				<linearGradient id="XMLID_93_" gradientUnits="userSpaceOnUse" x1="419.8667" y1="279.6266" x2="419.8667" y2="204.603">
					<stop  offset="0.1126" style="stop-color:#26245A"/>
					<stop  offset="1" style="stop-color:#393B78"/>
				</linearGradient>
				<path id="XMLID_2775_" class="st71" d="M456.6,296.1c0,0-32.1,19.5-47.3,17.6c-15.2-1.9-26.1-11.4-26.1-11.4s0.8-5.1,3.2-16.1
					c1.8-8.5,5.2-28.2,6.2-43.2c0.3-4.6,0.4-8.7,0.1-11.9c-0.2-2.8-0.3-5.7-0.1-8.7c0.5-11.5,3.2-23.1,5-26.3
					c2.4-4,13.2-10.2,21.7-10.3c21.2-0.3,31.3,10.3,31.3,10.3s2.7,10.3,1.9,18.4c-0.8,8.1-9.2,22.6-8.1,37
					C445.5,265.9,456.6,296.1,456.6,296.1z"/>
				<linearGradient id="XMLID_94_" gradientUnits="userSpaceOnUse" x1="417.5559" y1="213.7837" x2="417.5559" y2="289.7729">
					<stop  offset="0.1126" style="stop-color:#26245A"/>
					<stop  offset="1" style="stop-color:#393B78"/>
				</linearGradient>
				<path id="XMLID_2773_" class="st72" d="M442.7,219.8c0,0-1,10.4-15.8,22.3c-8.9,7.1-16.9,7.8-23.4,6.2c-4.5-1.1-8.2-3.3-11-5.3
					c0.3-4.6,0.4-8.7,0.1-11.9c-0.2-2.8-0.3-5.7-0.1-8.7c2.9,0.6,7,1.1,12.7,1.3c0.6,0,1.2,0.1,1.8,0.1
					C425.4,224.4,442.7,219.8,442.7,219.8z"/>
				
					<linearGradient id="XMLID_95_" gradientUnits="userSpaceOnUse" x1="418.7906" y1="183.8843" x2="418.7906" y2="201.148" gradientTransform="matrix(0.999 -4.452947e-002 4.452947e-002 0.999 -8.1284 18.8299)">
					<stop  offset="0.1126" style="stop-color:#26245A"/>
					<stop  offset="1" style="stop-color:#393B78"/>
				</linearGradient>
				<path id="XMLID_1097_" class="st73" d="M407,197.1c0,0,2.6-11.8,10.7-13.5c8.1-1.6,10.3,1.5,12.1,5.5s1.3,9.2,1.3,9.2
					s-6.9-4.6-13-4.6C411.9,193.7,407,197.1,407,197.1z"/>
			</g>
			<g id="XMLID_2768_">
				<g id="XMLID_1118_">
					<linearGradient id="XMLID_96_" gradientUnits="userSpaceOnUse" x1="397.1883" y1="199.2208" x2="397.1883" y2="288.8997">
						<stop  offset="0.1179" style="stop-color:#EE5A77"/>
						<stop  offset="1" style="stop-color:#801C56"/>
					</linearGradient>
					<path id="XMLID_1119_" class="st74" d="M415.2,185.9c0,0-5.4,16.7-8.6,30.4c-0.5,2.3-1,4.8-1.3,7.4c-1.1,7.7-1.5,16.2-1.8,24.6
						c-0.2,5.2-0.4,10.4-0.7,15.3c-1.1,15.6-4.8,50.9-4.8,50.9s-5.9-1.6-11.6-5.5c-5.7-3.9-7.1-7.1-7.1-7.1s12.3-56.2,11.9-59.8
						c0-0.1,0-0.2-0.1-0.3c-0.5-3.6-3.6-14.7-3.9-21c-0.1-0.9,0-1.6,0-2.3c0.6-5.5,6.2-20.6,10.3-24.4
						C401.5,190.4,411.2,185.9,415.2,185.9z"/>
					<linearGradient id="XMLID_97_" gradientUnits="userSpaceOnUse" x1="396.1627" y1="278.9921" x2="396.1627" y2="205.3774">
						<stop  offset="0.1179" style="stop-color:#EE5A77"/>
						<stop  offset="1" style="stop-color:#801C56"/>
					</linearGradient>
					<path id="XMLID_1114_" class="st75" d="M405.3,223.7c-1.1,7.7-1.5,16.2-1.8,24.6c-5.4-1.3-9.7-4.2-12.5-6.5
						c-0.5-3.6-3.6-14.7-3.9-21C389.3,221.8,394.3,223.2,405.3,223.7z"/>
				</g>
				<g id="XMLID_1116_">
					<linearGradient id="XMLID_98_" gradientUnits="userSpaceOnUse" x1="444.9566" y1="199.2208" x2="444.9566" y2="288.8997">
						<stop  offset="0.1179" style="stop-color:#EE5A77"/>
						<stop  offset="1" style="stop-color:#801C56"/>
					</linearGradient>
					<path id="XMLID_2777_" class="st76" d="M462.8,290.1c0,0-0.8,3.3-8.9,10.4c-0.3,0.3-0.6,0.6-1,0.8c-7.9,6.5-17.2,9.5-17.2,9.5
						s-3.7-47.9-4.9-72.1c-0.2-2.9-0.3-5.4-0.3-7.5c-0.1-2.9-0.2-5.9-0.4-8.9c-1-17.8-2.9-36.8-2.9-36.8c9.8,0.2,23.8,8.2,24.7,10.1
						c0.6,1.2,1.7,4,2.8,7.9c0.7,2.5,1.3,5.4,1.7,8.4c1,7.8-8.7,29.9-8.7,35.2C447.6,252.3,462.8,290.1,462.8,290.1z"/>
					<linearGradient id="XMLID_99_" gradientUnits="userSpaceOnUse" x1="450.8055" y1="177.5445" x2="450.8055" y2="299.9238">
						<stop  offset="0.1179" style="stop-color:#EE5A77"/>
						<stop  offset="1" style="stop-color:#801C56"/>
					</linearGradient>
					<path id="XMLID_2774_" class="st77" d="M462.8,290.1c0,0-0.8,3.3-8.9,10.4c-0.3,0.3-0.6,0.6-1,0.8c-0.4-2.1-0.9-4.9-1.6-8.5
						c-2.5-12.8-12.7-38.2-12.5-48.6c0.2-10.5-0.8-23.7,2.8-35.1c2.3-7.2,10-6.6,12.9-5.7c0.7,2.5,1.3,5.4,1.7,8.4
						c1,7.8-8.7,29.9-8.7,35.2C447.6,252.3,462.8,290.1,462.8,290.1z"/>
					<linearGradient id="XMLID_100_" gradientUnits="userSpaceOnUse" x1="444.4182" y1="226.7644" x2="419.7271" y2="233.412">
						<stop  offset="0.1179" style="stop-color:#C3436B"/>
						<stop  offset="1" style="stop-color:#801C56"/>
					</linearGradient>
					<path id="XMLID_1115_" class="st78" d="M442.7,219.8c0,0-0.8,8.5-11.9,18.9c-0.2-2.9-0.3-5.4-0.3-7.5c-0.1-2.9-0.2-5.9-0.4-8.9
						C437.6,221.2,442.7,219.8,442.7,219.8z"/>
				</g>
			</g>
		</g>
	</g>
</g>
<g id="F_LEFT_ARM_1">
	<g id="XMLID_2772_">
		<linearGradient id="XMLID_101_" gradientUnits="userSpaceOnUse" x1="463.8698" y1="199.2223" x2="463.8698" y2="288.9012">
			<stop  offset="0.1179" style="stop-color:#EE5A77"/>
			<stop  offset="1" style="stop-color:#801C56"/>
		</linearGradient>
		<path id="XMLID_2785_" class="st79" d="M485.4,258.4c-2.6,0.8-5.7,0.4-7.9-1.1c-1.4-0.9-4.6-3.9-8.5-7.6c0,0,0,0-0.1-0.1
			c-9.5-9-22.8-22.5-22.8-22.5s-3.9-2.7-6.4-8.9c-1.4-3.3-2.4-7.5-2.2-12.9c0.4-15.4,13.5-10.5,13.5-10.5s6.3,5.1,19,22.2
			s19.3,27.2,20.1,34.4C490.6,255.2,488.3,257.6,485.4,258.4z"/>
		<g id="XMLID_1096_">
			<linearGradient id="XMLID_102_" gradientUnits="userSpaceOnUse" x1="442.2846" y1="205.8228" x2="468.5585" y2="250.4568">
				<stop  offset="0.1179" style="stop-color:#EE5A77"/>
				<stop  offset="1" style="stop-color:#801C56"/>
			</linearGradient>
			<path id="XMLID_1122_" class="st80" d="M439.7,213c-0.5,1.7-0.5,3.6,0,5.4c0.2,0.9,0.6,1.8,1.2,2.6c2.6,3.8,21.3,22.1,28,28.7
				c1.5,1.5,2.4,2.4,2.4,2.4c5.6,0.3,9.2-1,3.6-7.6c-5.4-6.3-13.2-20.5-24.3-26.2C448,216.8,442.6,214.5,439.7,213z"/>
			<linearGradient id="XMLID_103_" gradientUnits="userSpaceOnUse" x1="439.0769" y1="202.2091" x2="467.2501" y2="252.8575">
				<stop  offset="0.1179" style="stop-color:#EE5A77"/>
				<stop  offset="1" style="stop-color:#801C56"/>
			</linearGradient>
			<path id="XMLID_2783_" class="st81" d="M471.3,251.9c-0.6-0.6-1.4-1.3-2.3-2.1c0,0,0,0-0.1-0.1c-9.5-9-22.8-22.5-22.8-22.5
				s-3.9-2.7-6.4-8.9c0.2,0,0.3,0,0.5,0c16.3,5.6,31,24.5,32,28.7C472.8,249.1,472.1,251.1,471.3,251.9z"/>
		</g>
		<linearGradient id="XMLID_104_" gradientUnits="userSpaceOnUse" x1="467.4142" y1="219.929" x2="447.1548" y2="182.8923">
			<stop  offset="0" style="stop-color:#EE5A77"/>
			<stop  offset="1" style="stop-color:#F8BAAF"/>
		</linearGradient>
		<path id="XMLID_1099_" class="st82" d="M455.8,200.8c-1.8-1.7-9.9-3.4,2.9,11.6c8.9,10.4,23.9,24,23.9,24S465.8,210,455.8,200.8z"
			/>
	</g>
</g>
<g id="F_LEFT_ARM_2">
	<g id="XMLID_2776_">
		<g id="XMLID_1131_">
			
				<linearGradient id="XMLID_105_" gradientUnits="userSpaceOnUse" x1="432.4744" y1="282.3079" x2="450.8344" y2="242.1057" gradientTransform="matrix(0.9178 0.397 -0.397 0.9178 146.6897 -132.0282)">
				<stop  offset="0" style="stop-color:#C66B50"/>
				<stop  offset="1" style="stop-color:#7B452B"/>
			</linearGradient>
			<path id="XMLID_1135_" class="st83" d="M442.6,284.4c0,0-2.7,2.3-4.7,2.8c-2,0.5-8.1,3-9,3.2c-0.9,0.2-3.5,1.9-3.5,2.7
				s0.6,1.9,3.1,1.2s4.8-1.8,5.1-0.9s-5.1,4.7-6.8,5.9s-5.1,2.1-5.5,2.9s-0.2,1.8,1.9,1.3c2.1-0.5,5.1-1.8,6.4-2.5
				c1.3-0.6,1.3-0.6,1.3-0.6s-2.4,2.2-5.3,3.2s-5.4,2.1-5.5,3.4s3.4,0.7,6.5-0.6s4.5-2.1,4.5-2.1s-3.4,2.4-5.6,3.3
				c-2.2,0.9-2.7,1.7-2.6,2.5c0.2,0.8,4.4-0.4,7.5-2.4c3.1-2,4.8-3.8,4.8-3.8s-2.5,2.7-3.9,3.8c-1.4,1-2.1,2.1-1.9,2.6
				c0.2,0.4,2.8-0.2,7.2-4.7c4.4-4.5,8-10.9,9.1-12.5s2.1-2.9,2.1-2.9S448,284.6,442.6,284.4z"/>
			
				<linearGradient id="XMLID_106_" gradientUnits="userSpaceOnUse" x1="434.0506" y1="263.5359" x2="450.6169" y2="263.5359" gradientTransform="matrix(0.9178 0.397 -0.397 0.9178 146.6897 -132.0282)">
				<stop  offset="0.1126" style="stop-color:#26245A"/>
				<stop  offset="1" style="stop-color:#393B78"/>
			</linearGradient>
			<path id="XMLID_1109_" class="st84" d="M448.6,276.9l-8.6,6.3c0,0,0.2,5,3.4,7.8c3.2,2.8,5.1,3.4,5.1,3.4l8-7.5
				C456.5,286.9,447.9,282.8,448.6,276.9z"/>
		</g>
		<g id="XMLID_2771_">
			<linearGradient id="XMLID_107_" gradientUnits="userSpaceOnUse" x1="468.1089" y1="202.5148" x2="468.1089" y2="281.8759">
				<stop  offset="0.1179" style="stop-color:#EE5A77"/>
				<stop  offset="1" style="stop-color:#801C56"/>
			</linearGradient>
			<path id="XMLID_2806_" class="st85" d="M483.7,265c-6.9,7.9-26.6,24-26.6,24s-1.3-0.2-4.7-2.6c-1-0.7-1.9-1.8-2.7-3
				c-2.1-3-3.5-6.6-3.5-6.6s7-6.1,16.4-17.7c5.3-6.6,9.4-12.2,13.3-14.9c1.7-1.2,3.3-1.8,5-1.8c1.3,0.1,2.6,0.5,3.9,1.5
				C493,249.7,490.6,257.2,483.7,265z"/>
			<linearGradient id="XMLID_108_" gradientUnits="userSpaceOnUse" x1="485.934" y1="224.8205" x2="465.358" y2="256.3175">
				<stop  offset="0.1179" style="stop-color:#EE5A77"/>
				<stop  offset="1" style="stop-color:#801C56"/>
			</linearGradient>
			<path id="XMLID_2804_" class="st86" d="M468.9,259.6c-7.8,12.2-18.4,22.6-19.2,23.8c-2.1-3-3.5-6.6-3.5-6.6s7-6.1,16.4-17.7
				c5.3-6.6,9.4-12.2,13.3-14.9C476.3,248.6,473.5,252.5,468.9,259.6z"/>
		</g>
	</g>
</g>
<g id="F_HEAD_1">
	<g id="XMLID_2766_">
		<g id="XMLID_1133_">
			
				<linearGradient id="XMLID_109_" gradientUnits="userSpaceOnUse" x1="416.9715" y1="181.4894" x2="425.2019" y2="181.4894" gradientTransform="matrix(0.9972 -7.526865e-002 7.526865e-002 0.9972 -12.5479 31.1349)">
				<stop  offset="0" style="stop-color:#C66B50"/>
				<stop  offset="1" style="stop-color:#7B452B"/>
			</linearGradient>
			<path id="XMLID_1143_" class="st87" d="M424.5,172.1l0,3.5l0,12.8c0,0-1.2,1.1-3.5,1.3s-3.5-1.6-3.5-1.6l-0.1-8.1l-0.1-6.6
				c0,0,1.3-1.9,3.4-2.2C422.8,171,424.5,172.1,424.5,172.1z"/>
			
				<linearGradient id="XMLID_110_" gradientUnits="userSpaceOnUse" x1="416.4513" y1="186.7528" x2="420.9886" y2="176.4121" gradientTransform="matrix(0.9972 -7.526865e-002 7.526865e-002 0.9972 -12.5479 31.1349)">
				<stop  offset="0" style="stop-color:#C66B50"/>
				<stop  offset="1" style="stop-color:#7B452B"/>
			</linearGradient>
			<path id="XMLID_1141_" class="st88" d="M424.5,172.1l0,3.5c-1,1.5-2.1,2.8-3.2,3.4c-1.6,0.9-2.9,1-4,1l-0.1-6.6
				c0,0,1.3-1.9,3.4-2.2C422.8,171,424.5,172.1,424.5,172.1z"/>
		</g>
		<g id="XMLID_1134_">
			<linearGradient id="XMLID_111_" gradientUnits="userSpaceOnUse" x1="414.1219" y1="162.1368" x2="447.8348" y2="161.662">
				<stop  offset="0" style="stop-color:#C66B50"/>
				<stop  offset="1" style="stop-color:#7B452B"/>
			</linearGradient>
			<path id="XMLID_1146_" class="st89" d="M430.4,167c-2,8.3-9.2,11-11.6,10.2c-0.1,0-0.1-0.1-0.2-0.1c-2.5-1-8-6.7-9.1-16.1
				c-1.2-9.7,4.6-13.7,9.1-14.1c1.8-0.2,3.3-0.1,4.7,0.3C431.2,149,432.5,158.3,430.4,167z"/>
			<linearGradient id="XMLID_112_" gradientUnits="userSpaceOnUse" x1="410.5857" y1="154.5596" x2="431.6364" y2="169.1211">
				<stop  offset="0" style="stop-color:#C66B50"/>
				<stop  offset="1" style="stop-color:#7B452B"/>
			</linearGradient>
			<path id="XMLID_1144_" class="st90" d="M430.4,167c-2,8.3-9.2,11-11.6,10.2c-0.1,0-0.1-0.1-0.2-0.1c1.9-1.2,6.4-4.5,7.2-14.7
				c0.6-7.7-1.1-12.6-2.5-15.3C431.2,149,432.5,158.3,430.4,167z"/>
		</g>
		<linearGradient id="XMLID_113_" gradientUnits="userSpaceOnUse" x1="421.8986" y1="141.9675" x2="421.2318" y2="202.6419">
			<stop  offset="0" style="stop-color:#304A54"/>
			<stop  offset="1" style="stop-color:#0F2935"/>
		</linearGradient>
		<path id="XMLID_19_" class="st91" d="M436.4,164.3c0.8,2.8-6.9,5.1-6.9,5.1s-0.7-1.2-1.2-3.4c-0.4-2,1.9-3.5,2.3-3.7
			c-0.3,0.1-2.4,0.8-5.5-2c-3.3-2.9-1.2-8.5-1.1-8.9c-0.2,0.2-1.8,2.5-6,3.7c-4.4,1.3-7.3-0.6-7.3-0.6c1.6,5-0.3,11.2-0.3,11.2
			s-2.3-1-3.7-6.3c-0.2-0.8-0.3-1.5-0.4-2.1c-0.7-5.8,2.8-6.9,2.8-6.9s0,0,0,0c-0.3-0.2-5.7-4.8-2.4-6.6c0.2-0.1,0.5-0.2,0.8-0.3
			c3.4-1.2,8.8,1,9,1.1c0,0,0,0,0,0v0c-0.3-0.4-2-3,0-4.2c0.2-0.1,0.5-0.3,0.8-0.4c3.5-1.2,8.1,3.8,8.1,3.8s4.3-3,6.5-0.5
			c0,0,0.1,0.1,0.1,0.2c1.9,2.3-2.4,3.9-2.4,3.9s0.3,0,0.7,0h0c1.7,0.1,6.1,0.9,7.4,5.4c0.2,0.5,0.2,1,0.3,1.4
			c0.4,4.7-4.5,7.6-4.5,7.6S435.5,161.5,436.4,164.3z"/>
		<linearGradient id="XMLID_114_" gradientUnits="userSpaceOnUse" x1="421.3703" y1="137.0378" x2="422.2453" y2="157.0378">
			<stop  offset="0" style="stop-color:#304A54"/>
			<stop  offset="1" style="stop-color:#0F2935"/>
		</linearGradient>
		<path id="XMLID_11_" class="st92" d="M436.4,164.3c0.8,2.8-6.9,5.1-6.9,5.1s-0.7-1.2-1.2-3.4c-0.4-2,1.9-3.5,2.3-3.7
			c-0.3,0.1-2.4,0.8-5.5-2c-3.3-2.9-1.2-8.5-1.1-8.9c-0.2,0.2-1.8,2.5-6,3.7c-4.4,1.3-7.3-0.6-7.3-0.6c1.6,5-0.3,11.2-0.3,11.2
			s-2.3-1-3.7-6.3c-0.2-0.8-0.3-1.5-0.4-2.1c0.9,0.5,1.9,0.6,2.3-1.5c0.8-3.8,0.8-4.3,0.8-4.3s2.5,1.1,6.5,0.5s4.5-1.4,4.5-1.4
			s-2.9,0.6-4.8,0.1c-1.8-0.5-2.4-0.9-2.4-0.9s4.2-0.1,7.9-0.7c3.7-0.6,4.9-1.9,4.9-1.9s-0.1,3.9,2.8,5.9c2.7,1.9,4.3,1.5,4.4,1.5
			c-0.1,0.1-1.2,1-2.7,1.1c-1.7,0.1-1.7,0.1-1.7,0.1s3.3,1.4,6.9-0.3c0.9-0.4,1.7-1,2.3-1.6c0.4,4.7-4.5,7.6-4.5,7.6
			S435.5,161.5,436.4,164.3z"/>
	</g>
</g>
<g id="TABLE">
	<g id="XMLID_1241_">
		<g id="XMLID_1183_">
			<linearGradient id="XMLID_115_" gradientUnits="userSpaceOnUse" x1="73.2442" y1="487.2334" x2="73.2442" y2="447.1532">
				<stop  offset="0.1231" style="stop-color:#E8A759"/>
				<stop  offset="1" style="stop-color:#E2713C"/>
			</linearGradient>
			<path id="XMLID_1189_" class="st93" d="M79.7,445.8V495c0,0-2.3,2.4-5.8,2.4c-3.6,0-5.1-3-5.1-3l-0.9-20.6l-1.2-26.7L79.7,445.8z
				"/>
			<linearGradient id="XMLID_116_" gradientUnits="userSpaceOnUse" x1="73.2442" y1="473.1603" x2="73.2442" y2="453.2624">
				<stop  offset="0.1231" style="stop-color:#E8A759"/>
				<stop  offset="1" style="stop-color:#E2713C"/>
			</linearGradient>
			<path id="XMLID_1186_" class="st94" d="M79.7,445.8v13.9c-2.8,2.8-6.4,6.8-10.1,11.8c-0.6,0.8-1.1,1.5-1.7,2.2l-0.5-10.5
				l-0.7-16.3L79.7,445.8z"/>
			<linearGradient id="XMLID_117_" gradientUnits="userSpaceOnUse" x1="73.2439" y1="497.5536" x2="73.2439" y2="455.8703">
				<stop  offset="0.1231" style="stop-color:#E8A759"/>
				<stop  offset="1" style="stop-color:#E2713C"/>
			</linearGradient>
			<path id="XMLID_1185_" class="st95" d="M79.7,445.8v7.7c-3.2,2.2-7.3,5.3-11.7,9.3c-0.2,0.2-0.3,0.3-0.5,0.5l-0.7-18.9
				L79.7,445.8z"/>
		</g>
		<g id="XMLID_1179_">
			<linearGradient id="XMLID_118_" gradientUnits="userSpaceOnUse" x1="372.5943" y1="464.3412" x2="372.5943" y2="417.9802">
				<stop  offset="0.1231" style="stop-color:#E8A759"/>
				<stop  offset="1" style="stop-color:#E2713C"/>
			</linearGradient>
			<path id="XMLID_1182_" class="st96" d="M379.1,424.2v46.6c0,0-2.3,2.2-5.8,2.2c-3.6,0-5.1-2.8-5.1-2.8l-0.9-19.5l-1.2-25.3
				L379.1,424.2z"/>
			<linearGradient id="XMLID_119_" gradientUnits="userSpaceOnUse" x1="372.5943" y1="457.7737" x2="372.5943" y2="433.0528">
				<stop  offset="0.1231" style="stop-color:#E8A759"/>
				<stop  offset="1" style="stop-color:#E2713C"/>
			</linearGradient>
			<path id="XMLID_1181_" class="st97" d="M379.1,424.2v13.2c-2.8,2.7-6.4,6.4-10.1,11.2c-0.6,0.7-1.1,1.4-1.7,2.1l-0.5-9.9
				l-0.7-15.4L379.1,424.2z"/>
			<linearGradient id="XMLID_120_" gradientUnits="userSpaceOnUse" x1="372.5943" y1="497.5536" x2="372.5943" y2="455.8703">
				<stop  offset="0.1231" style="stop-color:#E8A759"/>
				<stop  offset="1" style="stop-color:#E2713C"/>
			</linearGradient>
			<path id="XMLID_1180_" class="st98" d="M379.1,424.2v7.3c-3.2,2.1-7.3,5-11.7,8.8c-0.2,0.2-0.3,0.3-0.5,0.5l-0.7-15.4
				L379.1,424.2z"/>
		</g>
		<g id="XMLID_2816_">
			<linearGradient id="XMLID_121_" gradientUnits="userSpaceOnUse" x1="119.9357" y1="448.5667" x2="132.8829" y2="448.5667">
				<stop  offset="0.1231" style="stop-color:#E8A759"/>
				<stop  offset="1" style="stop-color:#E2713C"/>
			</linearGradient>
			<path id="XMLID_2819_" class="st99" d="M132.9,424.2v46.6c0,0-2.3,2.2-5.8,2.2c-3.6,0-5.1-2.8-5.1-2.8l-0.9-19.5l-1.2-25.3
				L132.9,424.2z"/>
			<linearGradient id="XMLID_122_" gradientUnits="userSpaceOnUse" x1="119.9357" y1="437.4152" x2="132.8829" y2="437.4152">
				<stop  offset="0.1231" style="stop-color:#E8A759"/>
				<stop  offset="1" style="stop-color:#E2713C"/>
			</linearGradient>
			<path id="XMLID_2818_" class="st100" d="M132.9,424.2v13.2c-2.8,2.7-6.4,6.4-10.1,11.2c-0.6,0.7-1.1,1.4-1.7,2.1l-0.5-9.9
				l-0.7-15.4L132.9,424.2z"/>
			<linearGradient id="XMLID_123_" gradientUnits="userSpaceOnUse" x1="119.9357" y1="432.4558" x2="132.8829" y2="432.4558">
				<stop  offset="0.1231" style="stop-color:#E8A759"/>
				<stop  offset="1" style="stop-color:#E2713C"/>
			</linearGradient>
			<path id="XMLID_2817_" class="st101" d="M132.9,424.2v7.3c-3.2,2.1-7.3,5-11.7,8.8c-0.2,0.2-0.3,0.3-0.5,0.5l-0.7-15.4
				L132.9,424.2z"/>
		</g>
		<g id="XMLID_1177_">
			<linearGradient id="XMLID_124_" gradientUnits="userSpaceOnUse" x1="332.8181" y1="481.6041" x2="332.8181" y2="433.2488">
				<stop  offset="0.1231" style="stop-color:#E8A759"/>
				<stop  offset="1" style="stop-color:#E2713C"/>
			</linearGradient>
			<path id="XMLID_1188_" class="st102" d="M339.3,448.6v46.6c0,0-2.3,2.2-5.8,2.2s-5.1-2.8-5.1-2.8l-0.9-19.5l-1.2-25.3
				L339.3,448.6z"/>
			<linearGradient id="XMLID_125_" gradientUnits="userSpaceOnUse" x1="332.8181" y1="471.0963" x2="332.8181" y2="456.4735">
				<stop  offset="0.1231" style="stop-color:#E8A759"/>
				<stop  offset="1" style="stop-color:#E2713C"/>
			</linearGradient>
			<path id="XMLID_1187_" class="st103" d="M339.3,448.6v13.2c-2.8,2.7-6.4,6.4-10.1,11.2c-0.6,0.7-1.1,1.4-1.7,2.1l-0.5-9.9
				l-0.7-15.4L339.3,448.6z"/>
			<linearGradient id="XMLID_126_" gradientUnits="userSpaceOnUse" x1="332.8181" y1="497.5536" x2="332.8181" y2="455.8703">
				<stop  offset="0.1231" style="stop-color:#E8A759"/>
				<stop  offset="1" style="stop-color:#E2713C"/>
			</linearGradient>
			<path id="XMLID_1184_" class="st104" d="M339.3,448.6v7.3c-3.2,2.1-7.3,5-11.7,8.8c-0.2,0.2-0.3,0.3-0.5,0.5l-0.7-15.4
				L339.3,448.6z"/>
		</g>
		<linearGradient id="XMLID_127_" gradientUnits="userSpaceOnUse" x1="319.9619" y1="385.705" x2="186.7367" y2="451.3794">
			<stop  offset="0.1231" style="stop-color:#E8A759"/>
			<stop  offset="1" style="stop-color:#E2713C"/>
		</linearGradient>
		<polygon id="XMLID_1174_" class="st105" points="64.4,435.2 336.8,441.3 337.2,453.6 64.4,446.9 		"/>
		<linearGradient id="XMLID_128_" gradientUnits="userSpaceOnUse" x1="375.4361" y1="420.5047" x2="304.5078" y2="475.2959">
			<stop  offset="0.1231" style="stop-color:#E8A759"/>
			<stop  offset="1" style="stop-color:#E2713C"/>
		</linearGradient>
		<polygon id="XMLID_1175_" class="st106" points="337.2,453.6 385.8,421.5 385.8,410.2 336.8,441.3 		"/>
		<g id="XMLID_1193_">
			<linearGradient id="XMLID_129_" gradientUnits="userSpaceOnUse" x1="64.3939" y1="423.8018" x2="385.823" y2="423.8018">
				<stop  offset="0.1231" style="stop-color:#E8A759"/>
				<stop  offset="1" style="stop-color:#E2713C"/>
			</linearGradient>
			<polygon id="XMLID_1176_" class="st107" points="64.4,435.2 336.8,441.3 385.8,410.2 121.1,406.4 			"/>
			<linearGradient id="XMLID_130_" gradientUnits="userSpaceOnUse" x1="64.3939" y1="425.6554" x2="133.0682" y2="425.6554">
				<stop  offset="0.1231" style="stop-color:#E8A759"/>
				<stop  offset="1" style="stop-color:#E2713C"/>
			</linearGradient>
			<path id="XMLID_1190_" class="st108" d="M105,414.5c0,0,18,1,6.4,6.3c-11.5,5.3-2.3,9.9,9.6,9.3c11.8-0.6,12.1,6.6,12.1,6.6
				l-68.7-1.5L105,414.5z"/>
			<g id="XMLID_1192_">
				<linearGradient id="XMLID_131_" gradientUnits="userSpaceOnUse" x1="311.3874" y1="422.6597" x2="385.823" y2="422.6597">
					<stop  offset="0.1231" style="stop-color:#E8A759"/>
					<stop  offset="1" style="stop-color:#E2713C"/>
				</linearGradient>
				<path id="XMLID_1178_" class="st109" d="M321.4,409.3c0,0-18.3,7.6-5.4,8.4s28.8,0.4,18.9,5s9.6,2.6,13.7,5.4
					c2.2,1.5-3.6,8-3.6,8l40.8-25.9L321.4,409.3z"/>
				<linearGradient id="XMLID_132_" gradientUnits="userSpaceOnUse" x1="326.4109" y1="417.861" x2="385.823" y2="417.861">
					<stop  offset="0.1231" style="stop-color:#E8A759"/>
					<stop  offset="1" style="stop-color:#E2713C"/>
				</linearGradient>
				<path id="XMLID_1191_" class="st110" d="M330.9,409.5c0,0-8.6,3.8-2.1,3.9c6.5,0.1,20.3,2.6,16.5,4.2c-3.7,1.6-0.7,5,5.5,5
					c6.6,0,9.8,3.6,9.8,3.6l25.3-16L330.9,409.5z"/>
			</g>
		</g>
	</g>
</g>
<g id="BOOK_1">
	<g id="XMLID_2822_">
		<linearGradient id="XMLID_133_" gradientUnits="userSpaceOnUse" x1="210.6681" y1="423.7842" x2="327.5295" y2="423.7842">
			<stop  offset="0.1179" style="stop-color:#26245A"/>
			<stop  offset="1" style="stop-color:#191341"/>
		</linearGradient>
		<path id="XMLID_2845_" class="st111" d="M327.2,413.9l-22.8,21.8c-0.8,0.8-1.9,1.2-3.1,1.3c-0.1,0-0.2,0-0.3,0l-89.5-3
			c-0.9,0-1.3-1.2-0.5-1.7l28.2-20.8c0.8-0.6,1.8-0.9,2.8-0.9l84.5,1.7c0.2,0,0.4,0.1,0.6,0.2C327.6,412.8,327.7,413.5,327.2,413.9z
			"/>
		<linearGradient id="XMLID_134_" gradientUnits="userSpaceOnUse" x1="314.1279" y1="422.3477" x2="315.0686" y2="433.0384">
			<stop  offset="4.805624e-002" style="stop-color:#706CA7"/>
			<stop  offset="1" style="stop-color:#221F53"/>
		</linearGradient>
		<path id="XMLID_2843_" class="st112" d="M327.2,413.9l-22.8,21.8c-0.8,0.8-1.9,1.2-3.1,1.3c-0.2-0.2-0.2-0.5-0.2-0.5
			s0.8-0.2,1.5-0.7c0.7-0.5,24.4-23.2,24.4-23.2c0,0,0,0,0.1-0.1C327.6,412.8,327.7,413.5,327.2,413.9z"/>
		<linearGradient id="XMLID_135_" gradientUnits="userSpaceOnUse" x1="269.7444" y1="421.9476" x2="261.5821" y2="434.0504">
			<stop  offset="0" style="stop-color:#CFDFE5"/>
			<stop  offset="1" style="stop-color:#E9ECEE"/>
		</linearGradient>
		<polygon id="XMLID_1280_" class="st113" points="215.2,432.2 299.8,434.8 322.9,413.8 244.7,411.3 		"/>
		<linearGradient id="XMLID_136_" gradientUnits="userSpaceOnUse" x1="265.4509" y1="431.4662" x2="271.174" y2="415.7044">
			<stop  offset="0" style="stop-color:#CFDFE5"/>
			<stop  offset="1" style="stop-color:#E9ECEE"/>
		</linearGradient>
		<polygon id="XMLID_1290_" class="st114" points="319.9,413.2 321.7,413.2 299.1,434 249.7,432.1 216,430.9 243.9,410.7 
			271.8,411.5 		"/>
		<g id="XMLID_1287_">
			<linearGradient id="XMLID_137_" gradientUnits="userSpaceOnUse" x1="250.1642" y1="419.4582" x2="320.5296" y2="419.4582">
				<stop  offset="0" style="stop-color:#CFDFE5"/>
				<stop  offset="1" style="stop-color:#E9ECEE"/>
			</linearGradient>
			<path id="XMLID_1306_" class="st115" d="M320.5,412.6l-19.8,18.6l-1.9,1.8c0,0-14.2-2.7-23.4-3.4c-9.2-0.7-25.3,1.7-25.3,1.7
				l24.1-21.7c0,0,0.9-0.4,2.6-1c3.5-1.2,10.2-2.9,18.3-2.8C307.3,406,320.5,412.6,320.5,412.6z"/>
			<linearGradient id="XMLID_138_" gradientUnits="userSpaceOnUse" x1="216.3142" y1="419.2242" x2="274.1264" y2="419.2242">
				<stop  offset="0" style="stop-color:#CFDFE5"/>
				<stop  offset="1" style="stop-color:#E9ECEE"/>
			</linearGradient>
			<path id="XMLID_2849_" class="st116" d="M274.1,409.8L274.1,409.8C274.1,409.8,274.1,409.8,274.1,409.8l-23.5,21.7
				c0,0-0.1-0.1-0.4-0.2c-0.6-0.3-1.8-0.9-3.8-1.5c0,0,0,0,0,0c-0.2-0.1-0.4-0.1-0.6-0.2c-0.3-0.1-0.6-0.2-0.9-0.2
				c-1.8-0.5-4.1-0.9-7-1.3c-8.9-1.1-21,1.5-21.6,1.7l0.4-0.3l15.5-11.6l0.2-0.2l8.7-6.5c0,0,7-4.8,17.2-4.2
				C270.3,407.7,273.7,409.5,274.1,409.8C274.1,409.8,274.1,409.8,274.1,409.8L274.1,409.8C274.1,409.8,274.1,409.8,274.1,409.8z"/>
			<linearGradient id="XMLID_139_" gradientUnits="userSpaceOnUse" x1="259.4784" y1="434.0235" x2="281.4324" y2="423.7501">
				<stop  offset="0" style="stop-color:#CFDFE5"/>
				<stop  offset="1" style="stop-color:#CBE1EC"/>
			</linearGradient>
			<path id="XMLID_1304_" class="st117" d="M300.7,431.3l-1.9,1.8c0,0-14.2-2.7-23.4-3.4c-9.2-0.7-25.3,1.7-25.3,1.7l24.1-21.7
				c0,0,0.9-0.4,2.6-1c-3.7,3.2-7.2,7.6-3.1,10.3c6.9,4.5,19,2.4,24.4,8.4C299.3,428.7,300.1,430,300.7,431.3z"/>
			<linearGradient id="XMLID_140_" gradientUnits="userSpaceOnUse" x1="252.6133" y1="433.3305" x2="240.9571" y2="410.9432">
				<stop  offset="0" style="stop-color:#CFDFE5"/>
				<stop  offset="1" style="stop-color:#E9ECEE"/>
			</linearGradient>
			<path id="XMLID_2847_" class="st118" d="M274.2,409.7L274.2,409.7L274.2,409.7l-23.9,21.5l-0.1,0.1c0,0-1.1-0.7-3.7-1.5
				c0,0,0,0,0,0c-0.2-0.1-0.4-0.1-0.6-0.2c-0.3-0.1-0.6-0.2-0.9-0.2c-1.9-0.5-4.4-1-7.5-1.4c-7.7-0.9-17.7,0.9-20.7,1.5l15.5-11.6
				l0.2-0.2c9.1-0.4,8.2,3.6,14.4,4.1C255.2,422.5,272.1,411.2,274.2,409.7C274.1,409.8,274.1,409.7,274.2,409.7z"/>
		</g>
	</g>
</g>
<g id="SPEAKER">
	<g id="XMLID_1127_">
		<g id="XMLID_1224_">
			<linearGradient id="XMLID_141_" gradientUnits="userSpaceOnUse" x1="339.8346" y1="387.9624" x2="376.3726" y2="387.9624">
				<stop  offset="0" style="stop-color:#463254"/>
				<stop  offset="1" style="stop-color:#291433"/>
			</linearGradient>
			<path id="XMLID_1236_" class="st119" d="M374.7,372.8c1.4,2.3,1.9,4.9,1.5,7.5c-0.7,5-2,14-3.1,19.6c-1.5,7.7-3,11.5-3.1,11.8
				c0,0,0,0,0,0l-1.1,0l-16.6-0.4c0,0-0.4-4.2-3.2-7.2c-1.8-2-5.4-2.9-7.6-3.3c-1.1-0.2-1.9-1.3-1.7-2.4l4.9-30.9
				c0.1-0.9,0.9-1.6,1.8-1.6l21.5-1.6c0,0,2.9,3,5.3,6.4C373.8,371.4,374.3,372.1,374.7,372.8z"/>
			<linearGradient id="XMLID_142_" gradientUnits="userSpaceOnUse" x1="343.4045" y1="412.3557" x2="375.4911" y2="412.3557">
				<stop  offset="0" style="stop-color:#463254"/>
				<stop  offset="1" style="stop-color:#291433"/>
			</linearGradient>
			<path id="XMLID_1221_" class="st120" d="M374.1,413.8h-29.3c-0.8,0-1.4-0.6-1.4-1.4l0,0c0-0.8,0.6-1.4,1.4-1.4h29.3
				c0.8,0,1.4,0.6,1.4,1.4l0,0C375.5,413.1,374.9,413.8,374.1,413.8z"/>
			<linearGradient id="XMLID_143_" gradientUnits="userSpaceOnUse" x1="355.3918" y1="423.3057" x2="355.2045" y2="407.0109">
				<stop  offset="0" style="stop-color:#463254"/>
				<stop  offset="1" style="stop-color:#291433"/>
			</linearGradient>
			<path id="XMLID_1233_" class="st121" d="M369,411.7l-16.6-0.4c0,0-0.4-4.2-3.2-7.2c-2.8-3-7.8-3.6-7.8-3.6h23.2
				c0,0,3.5,4.8,4.1,8C369,410,369,411,369,411.7z"/>
			<linearGradient id="XMLID_144_" gradientUnits="userSpaceOnUse" x1="375.9059" y1="377.5456" x2="358.8305" y2="403.44">
				<stop  offset="0" style="stop-color:#463254"/>
				<stop  offset="1" style="stop-color:#291433"/>
			</linearGradient>
			<path id="XMLID_1232_" class="st122" d="M374.7,372.8c1.4,2.3,1.9,4.9,1.5,7.5c-0.7,5-2,14-3.1,19.6c-1.5,7.7-3,11.5-3.1,11.8
				c0,0,0,0,0,0l-1.1,0c0,0-0.2-2-1-4.9c-0.8-2.9-3.4-6.3-3.4-6.3s1.2-9.5,2.4-19.3c1.2-9.9,1-16.9,1-16.9s2.9,3,5.3,6.4
				C373.8,371.4,374.3,372.1,374.7,372.8z"/>
			<linearGradient id="XMLID_145_" gradientUnits="userSpaceOnUse" x1="353.3315" y1="363.8575" x2="354.6163" y2="430.6683">
				<stop  offset="0.1179" style="stop-color:#755884"/>
				<stop  offset="1" style="stop-color:#343977"/>
			</linearGradient>
			<path id="XMLID_1223_" class="st123" d="M346.5,373.3l-4.1,23.6c-0.1,0.5,0.3,0.9,0.7,0.9l18.3-0.1c0.4,0,0.7-0.3,0.7-0.6
				c0.4-3.2,2.4-17.1,2.7-20.6c0.2-2.1,0.2-3.4,0.3-4.1c0-0.4-0.4-0.8-0.8-0.8l-17.1,1C346.8,372.7,346.5,372.9,346.5,373.3z"/>
		</g>
		<linearGradient id="XMLID_146_" gradientUnits="userSpaceOnUse" x1="356.1552" y1="362.895" x2="357.4254" y2="428.946">
			<stop  offset="0.1179" style="stop-color:#755884"/>
			<stop  offset="1" style="stop-color:#343977"/>
		</linearGradient>
		<path id="XMLID_1222_" class="st124" d="M347.2,368l-0.2,1.8c0,0.4,0.3,0.7,0.7,0.7l17.2-0.9c0.3,0,0.6-0.3,0.6-0.6l0.1-2.1
			c0-0.4-0.3-0.7-0.7-0.7l-17,1.2C347.5,367.4,347.3,367.7,347.2,368z"/>
	</g>
</g>
<g id="M_LEFT_ARM_2">
	<g id="XMLID_1271_">
		<linearGradient id="XMLID_147_" gradientUnits="userSpaceOnUse" x1="129.1543" y1="460.9185" x2="71.1732" y2="355.9333">
			<stop  offset="0" style="stop-color:#C66B50"/>
			<stop  offset="1" style="stop-color:#7B452B"/>
		</linearGradient>
		<path id="XMLID_1294_" class="st125" d="M133.1,452.8c-2.4,3.3-6.6,2.4-6.6,2.4S107.2,438,100.2,430c-6.9-8.1-10.7-17.6-7.5-21.2
			c0.7-0.8,1.8-1.5,3.1-1.9c4.2-1.3,10.7-0.1,16.1,5.8c6.9,7.7,21.8,32.8,21.8,32.8s0.6,1.2,0.7,2.9
			C134.4,449.7,134.2,451.3,133.1,452.8z"/>
		<linearGradient id="XMLID_148_" gradientUnits="userSpaceOnUse" x1="131.0583" y1="461.1229" x2="95.3127" y2="405.3935">
			<stop  offset="0" style="stop-color:#C66B50"/>
			<stop  offset="1" style="stop-color:#7B452B"/>
		</linearGradient>
		<path id="XMLID_1291_" class="st126" d="M133.1,452.8c-2.4,3.3-6.6,2.4-6.6,2.4S107.2,438,100.2,430c-6.9-8.1-10.7-17.6-7.5-21.2
			c0.7-0.8,1.8-1.5,3.1-1.9c1.8,4.3,6.7,14.3,17.4,24.6c8.6,8.2,16.3,13.8,21.1,16.9C134.4,449.7,134.2,451.3,133.1,452.8z"/>
	</g>
</g>
<g id="M_LEFT_ARM_1">
	<g id="XMLID_26_">
		<g id="XMLID_1278_">
			<linearGradient id="XMLID_149_" gradientUnits="userSpaceOnUse" x1="135.5363" y1="457.3968" x2="77.5568" y2="352.4145">
				<stop  offset="0" style="stop-color:#C66B50"/>
				<stop  offset="1" style="stop-color:#7B452B"/>
			</linearGradient>
			<path id="XMLID_2832_" class="st127" d="M118.6,398.1l-4.5,14.6l-0.8,2.5c0,0-4.6,4.4-9.9,4.8c-0.3,0-0.5,0-0.8,0
				c-5.6,0-8.6-1.1-10.7-6.2c-1.1-2.7,1.5-9.9,4.3-15c2.8-5.1,8.6-14.6,8.6-14.6s6.6-1.3,9.6,0.4
				C117.5,386.3,118.6,398.1,118.6,398.1z"/>
			<linearGradient id="XMLID_150_" gradientUnits="userSpaceOnUse" x1="139.4949" y1="455.7115" x2="103.7493" y2="399.9821">
				<stop  offset="0" style="stop-color:#C66B50"/>
				<stop  offset="1" style="stop-color:#7B452B"/>
			</linearGradient>
			<path id="XMLID_2830_" class="st128" d="M118.6,398.1l-4.5,14.6c-1.7-1-3.6-1.9-5-2.2c-3.8-0.9-7.1,1-6.8,4.5
				c0.1,1.9,0.7,3.7,1.2,5c-0.3,0-0.5,0-0.8,0c-5.6,0-8.6-1.1-10.7-6.2c-1.1-2.7,1.5-9.9,4.3-15c2.8-5.1,8.6-14.6,8.6-14.6
				s6.6-1.3,9.6,0.4C117.5,386.3,118.6,398.1,118.6,398.1z"/>
		</g>
		<g id="XMLID_2814_">
			<g id="XMLID_2813_">
				<linearGradient id="XMLID_151_" gradientUnits="userSpaceOnUse" x1="108.7631" y1="364.1505" x2="128.9743" y2="403.7067">
					<stop  offset="0.1231" style="stop-color:#FFD65B"/>
					<stop  offset="0.9692" style="stop-color:#F7923A"/>
				</linearGradient>
				<path id="XMLID_15_" class="st129" d="M132.7,383.9l-0.5,0.9c-0.6,1.1-1,1.7-1,1.7l-12.6,23.1c0,0-0.2-3.8-4.7-8
					c-1.3-1.2-3.4-2.4-5.8-3.5c-5.7-2.6-12.6-4.4-12.6-4.4l24.3-38.9c4.9-4.9,10.7-2,13.9,2.8c1.1,1.6,1.9,3.5,2.3,5.3
					C137.9,372.2,134.7,380.1,132.7,383.9z"/>
				<linearGradient id="XMLID_152_" gradientUnits="userSpaceOnUse" x1="107.4688" y1="354.5755" x2="128.7018" y2="391.3121">
					<stop  offset="0.1231" style="stop-color:#FFD65B"/>
					<stop  offset="0.9692" style="stop-color:#F7923A"/>
				</linearGradient>
				<path id="XMLID_13_" class="st130" d="M132.7,383.9l-0.5,0.9l-13.6,24.8c0,0-0.2-3.8-4.7-8c-1.3-1.2-3.4-2.4-5.8-3.5
					c0.7-1,1.3-2,1.8-3c1.8-3.3,22.1-27.7,23.8-37.4c1.1,1.6,1.9,3.5,2.3,5.3C137.9,372.2,134.7,380.1,132.7,383.9z"/>
			</g>
			<g id="XMLID_2812_">
				<linearGradient id="XMLID_153_" gradientUnits="userSpaceOnUse" x1="93.1838" y1="402.5888" x2="119.884" y2="402.5888">
					<stop  offset="0.1231" style="stop-color:#FFD65B"/>
					<stop  offset="0.9692" style="stop-color:#F7923A"/>
				</linearGradient>
				<path id="XMLID_1300_" class="st131" d="M119.8,406.8c0,0,0.5,1.5-0.6,4.2c-1.2,3-5.1,2-5.1,2s1.2-3.4-9-8.3
					c-0.4-0.2-0.8-0.4-1.2-0.6c-8-3.6-9.3-2-9.2-1.8c-1.9-3-1.7-5.1-0.7-7.1c1.1-2.1,2.7-3.1,2.7-3.1s7,1.3,12.7,4.1
					c1.4,0.7,2.8,1.6,3.9,2.5C118.7,403.2,119.8,406.8,119.8,406.8z"/>
				<linearGradient id="XMLID_154_" gradientUnits="userSpaceOnUse" x1="98.5478" y1="389.5809" x2="109.5638" y2="402.2377">
					<stop  offset="0.1231" style="stop-color:#FFD65B"/>
					<stop  offset="0.9692" style="stop-color:#F7923A"/>
				</linearGradient>
				<path id="XMLID_1296_" class="st132" d="M119.8,406.8c0,0,0.4,1.8-0.4,4.1c-1,3-5.4,2.1-5.4,2.1s1.2-3.4-9-8.3
					c-0.4-0.2-0.8-0.4-1.2-0.6c1.9-2.5,4-5.4,5.5-7.9c1.4,0.7,2.8,1.6,3.9,2.5C118.7,403.2,119.8,406.8,119.8,406.8z"/>
			</g>
			<linearGradient id="XMLID_155_" gradientUnits="userSpaceOnUse" x1="101.4855" y1="391.471" x2="112.9021" y2="366.3044">
				<stop  offset="9.081886e-002" style="stop-color:#FBBD4E"/>
				<stop  offset="0.9639" style="stop-color:#FEE2A2"/>
			</linearGradient>
			<path id="XMLID_8_" class="st133" d="M114.3,365.8c1.5-1.3,0.7,7.3-4.3,14s-12.3,11.8-12.3,11.8S110.7,368.8,114.3,365.8z"/>
		</g>
	</g>
</g>
<g id="M_LEG">
	<g id="XMLID_2821_">
		<g id="XMLID_1251_">
			<linearGradient id="XMLID_156_" gradientUnits="userSpaceOnUse" x1="236.7651" y1="485.2333" x2="288.2691" y2="485.2333">
				<stop  offset="0.1179" style="stop-color:#673656"/>
				<stop  offset="1" style="stop-color:#53283D"/>
			</linearGradient>
			<path id="XMLID_1272_" class="st134" d="M271,494.5c-15.4,5.3-26.8,4.6-31.6-0.1c0,0,0,0,0,0c-4.8-4.8-4.3-13.2,11.4-15.6
				c0,0,11.8-2.3,19.4-5.1c6.9-2.6,14.6-1.6,17.1,2.3c0.2,0.4,0.4,0.8,0.6,1.2C289.5,482.1,286.4,489.1,271,494.5z"/>
			<linearGradient id="XMLID_157_" gradientUnits="userSpaceOnUse" x1="239.4215" y1="486.864" x2="288.2691" y2="486.864">
				<stop  offset="0.1179" style="stop-color:#673656"/>
				<stop  offset="1" style="stop-color:#53283D"/>
			</linearGradient>
			<path id="XMLID_1273_" class="st135" d="M271,494.5c-0.6,0.2-1.2,0.4-1.8,0.6c-14.5,4.7-25.2,3.9-29.8-0.7c0,0,0,0,0,0
				c0-5.7,2.7-10.4,10.2-10.5c3.9-0.1,9.4-1.5,14.9-3.2c6.8-2.1,13.7-4.4,17.8-5c2.2-0.3,3.8-0.1,5,0.3c0.2,0.4,0.4,0.8,0.6,1.2
				C289.5,482.1,286.4,489.1,271,494.5z"/>
			<linearGradient id="XMLID_158_" gradientUnits="userSpaceOnUse" x1="239.4215" y1="489.4347" x2="269.2426" y2="489.4347">
				<stop  offset="0.1179" style="stop-color:#673656"/>
				<stop  offset="1" style="stop-color:#53283D"/>
			</linearGradient>
			<path id="XMLID_1269_" class="st136" d="M269.2,495.1c-14.5,4.7-25.2,3.9-29.8-0.7c0,0,0,0,0,0c0-5.7,2.7-10.4,10.2-10.5
				c3.9-0.1,9.4-1.5,14.9-3.2c-1,3.5-1.5,7.4,0.1,10.5C265.6,492.9,267.2,494.2,269.2,495.1z"/>
		</g>
		<g id="XMLID_1248_">
			<linearGradient id="XMLID_159_" gradientUnits="userSpaceOnUse" x1="186.9627" y1="439.1462" x2="162.5694" y2="554.3578">
				<stop  offset="0.1126" style="stop-color:#26245A"/>
				<stop  offset="1" style="stop-color:#393B78"/>
			</linearGradient>
			<path id="XMLID_1267_" class="st137" d="M269.9,469.9c-0.8,6.8-31.8,42.5-65.9,47.8s-38,0.3-50.4-0.3s-20.8,2.5-31.2-3.7
				c-10.4-6.2-27.6-39.7-28.4-52.9c-0.2-3.8,0.2-6.8,1.2-9.2c2.4-5.7,7.6-7.5,11.8-7.5c2.8,0,8.9,5.6,15.3,11.7
				c7,6.6,14.6,13.7,19,14.5c16,3.1,20,1.4,42.5-2.8c5.8-1.1,12.2-2.5,18.9-4.1c19.3-4.6,40.3-10.3,50.9-11.1
				c9-0.7,13.4,3.7,15.3,8.7C270,464.1,270.2,467.3,269.9,469.9z"/>
			<linearGradient id="XMLID_160_" gradientUnits="userSpaceOnUse" x1="217.6857" y1="471.0659" x2="272.2892" y2="443.4826">
				<stop  offset="0.1126" style="stop-color:#26245A"/>
				<stop  offset="1" style="stop-color:#393B78"/>
			</linearGradient>
			<path id="XMLID_1279_" class="st138" d="M252,454.2c-5.8-0.2-38.8,8.4-32.6,9s42.6-4.1,42.2-6.8
				C261.2,453.8,257.9,454.4,252,454.2z"/>
			<linearGradient id="XMLID_161_" gradientUnits="userSpaceOnUse" x1="181.94" y1="453.3642" x2="181.94" y2="518.6687">
				<stop  offset="0.1126" style="stop-color:#26245A"/>
				<stop  offset="1" style="stop-color:#393B78"/>
			</linearGradient>
			<path id="XMLID_1266_" class="st139" d="M269.9,469.9c0,0.3-0.1,0.6-0.3,1c-3.2,8.7-33,41.7-65.6,46.8c-34.1,5.3-38,0.3-50.4-0.3
				s-20.8,2.5-31.2-3.7c-7.6-4.5-18.8-23.5-24.6-38.6c-2.2-5.6-3.6-10.7-3.8-14.3c-0.2-3.8,0.2-6.8,1.2-9.2c0.3,1.2,0.6,2.6,1,4
				c1.7,5.6,8.6,18.9,15.4,17.1c4.4-1.2,8.4-10.4,10.7-16.9c1.3-3.5,2-6.2,2-6.2l79,6.2c0,0-0.4,3.5-0.6,7.6
				c-0.2,3.6-0.3,7.7,0.3,10c1.1,4.9,20.1,16.5,42.2,5.3c14-7.1,20.7-13.7,23.8-17.7C270,464.1,270.2,467.3,269.9,469.9z"/>
			<linearGradient id="XMLID_162_" gradientUnits="userSpaceOnUse" x1="183.6886" y1="404.8589" x2="183.6886" y2="473.638">
				<stop  offset="0.1126" style="stop-color:#26245A"/>
				<stop  offset="1" style="stop-color:#393B78"/>
			</linearGradient>
			<path id="XMLID_1262_" class="st140" d="M269.6,470.9c-3.2,8.7-33,41.7-65.6,46.8c-34.1,5.3-38,0.3-50.4-0.3s-20.8,2.5-31.2-3.7
				c-7.6-4.5-18.8-23.5-24.6-38.6c7.3,11.9,22,33.4,34,34.8c16.5,1.9,19.1-0.2,34.9,1.5s45.4,0.4,67.4-11.4
				C248.7,492.1,262,478.8,269.6,470.9z"/>
			<linearGradient id="XMLID_163_" gradientUnits="userSpaceOnUse" x1="191.0516" y1="442.7625" x2="191.0516" y2="498.7751">
				<stop  offset="0.1126" style="stop-color:#26245A"/>
				<stop  offset="1" style="stop-color:#393B78"/>
			</linearGradient>
			<path id="XMLID_1249_" class="st141" d="M170,504.5c0,0,3.4,6.8,6.2,10.1c2.8,3.4,5.1,5.4,5.1,5.4s11.1,1.1,19.7-0.8
				c8.6-1.9,11.1-3.8,11.1-3.8s-6.6-6.4-9.8-10.5c-3.2-4.1-3.8-6.6-3.8-6.6S183.7,504.9,170,504.5z"/>
			<linearGradient id="XMLID_164_" gradientUnits="userSpaceOnUse" x1="161.3527" y1="487.9839" x2="161.3527" y2="474.4269">
				<stop  offset="0.1126" style="stop-color:#26245A"/>
				<stop  offset="1" style="stop-color:#393B78"/>
			</linearGradient>
			<path id="XMLID_1247_" class="st142" d="M109.2,463.6c0,0,3.1,12.4,19.1,21.4c15.9,8.9,45.4,9.5,63.8-1.9s21.4-22.3,21.4-22.3
				L109.2,463.6z"/>
			<linearGradient id="XMLID_165_" gradientUnits="userSpaceOnUse" x1="133.508" y1="442.7625" x2="133.508" y2="498.7751">
				<stop  offset="0.1126" style="stop-color:#26245A"/>
				<stop  offset="1" style="stop-color:#393B78"/>
			</linearGradient>
			<path id="XMLID_1250_" class="st143" d="M121.2,492.6c0,0,3.8,3.9,13.6,8.2c7.7,3.3,15.2,4.7,15.2,4.7s-6.4,9.7-7.9,10.9
				s-1.8,1.5-1.8,1.5s-7.3,1.1-14.4-2.1c-7-3.2-8.9-7-8.9-7S118.1,496.2,121.2,492.6z"/>
		</g>
	</g>
</g>
<g id="M_BODY">
	<g id="XMLID_2811_">
		<linearGradient id="XMLID_166_" gradientUnits="userSpaceOnUse" x1="171.4655" y1="313.5137" x2="161.9655" y2="453.5137">
			<stop  offset="0" style="stop-color:#24ACE3"/>
			<stop  offset="1" style="stop-color:#465A8C"/>
		</linearGradient>
		<path id="XMLID_1258_" class="st144" d="M212.3,463c-4.1,4.7-23.6,18.9-56.7,19.1c-33,0.2-47.3-18.4-47.3-18.4s9-19.3,11.8-30.7
			c0,0,0,0,0,0c2.8-11.4,1.5-22.7-3.4-51.4c-2.4-14.3,0-23.5,4.9-29.3c5-5.9,12.5-8.3,20.3-9.2c6.8-0.8,21.7-2.3,33.4-0.2
			c5.3,1,10,2.7,13,5.6c5.1,5,7.4,13.8,8.8,25.3c1.2,10,1.7,22,2.9,35.3c2.4,28.5,14.1,45.2,14.1,45.2S216.4,458.3,212.3,463z"/>
		<g id="XMLID_1243_">
			<linearGradient id="XMLID_167_" gradientUnits="userSpaceOnUse" x1="164.8126" y1="380.1609" x2="161.3126" y2="464.6609">
				<stop  offset="0" style="stop-color:#24ACE3"/>
				<stop  offset="1" style="stop-color:#465A8C"/>
			</linearGradient>
			<path id="XMLID_1256_" class="st145" d="M212.3,463c-4.1,4.7-23.6,18.9-56.7,19.1c-33,0.2-47.3-18.4-47.3-18.4s3.3-7.1,6.5-15.2
				c2.1-5.3,4.2-11,5.3-15.5c4.1,6.1,9.9,12.3,17.7,16c19.4,9.3,0.3-23.9,24.8-16.3s26.2-15.8,22.5-34.3
				c-3.9-19.7-0.8-26.2,5.9-25.1c2.4,0.4,4.3,0.2,6,0.5c0.9,7.6,1.4,16.4,2.1,26c0.2,3,0.5,6.2,0.7,9.4
				c2.4,28.5,14.1,45.2,14.1,45.2S216.4,458.3,212.3,463z"/>
			<linearGradient id="XMLID_168_" gradientUnits="userSpaceOnUse" x1="163.1756" y1="400.8241" x2="161.1756" y2="471.3241">
				<stop  offset="0" style="stop-color:#24ACE3"/>
				<stop  offset="1" style="stop-color:#465A8C"/>
			</linearGradient>
			<path id="XMLID_1252_" class="st146" d="M212.3,463c-4.1,4.7-23.6,18.9-56.7,19.1c-33,0.2-47.3-18.4-47.3-18.4s3.3-7.1,6.5-15.2
				c6,6.9,21.5,22.3,34.3,16.6c16.3-7.3,1.4-15.2,15.5-18.3c14.1-3.1,23.9,9.6,26.5-10.1c2.5-19.7-4.5-36.6,3.9-37.7
				c1.2-0.2,2.6,0.2,4.1,0.9c0.2,3,0.5,6.2,0.7,9.4c2.4,28.5,14.1,45.2,14.1,45.2S216.4,458.3,212.3,463z"/>
		</g>
		<linearGradient id="XMLID_169_" gradientUnits="userSpaceOnUse" x1="137.8373" y1="390.3254" x2="156.3373" y2="315.8254">
			<stop  offset="0" style="stop-color:#24ACE3"/>
			<stop  offset="1" style="stop-color:#465A8C"/>
		</linearGradient>
		<path id="XMLID_1263_" class="st147" d="M175.3,342.9c-3.7,3.3-23.4,20.5-39.7,20.3c-13.3-0.2-14.9-6.1-14-10.9
			c1.5-1.8,3.2-3.2,5.1-4.4c4.4-2.8,9.7-4.2,15.2-4.8c6.1-0.7,18.4-2,29.3-0.8C172.6,342.5,173.9,342.7,175.3,342.9z"/>
		<linearGradient id="XMLID_170_" gradientUnits="userSpaceOnUse" x1="139.5773" y1="371.0959" x2="148.4107" y2="346.5959">
			<stop  offset="0" style="stop-color:#24ACE3"/>
			<stop  offset="1" style="stop-color:#465A8C"/>
		</linearGradient>
		<path id="XMLID_1259_" class="st148" d="M171.2,342.3c-6.7,4-23.8,10.4-34.3,10.5c-7.8,0.1-9.8-2.6-10.1-4.9
			c4.4-2.8,9.7-4.2,15.2-4.8C148,342.4,160.3,341.1,171.2,342.3z"/>
		<g id="XMLID_1246_">
			<linearGradient id="XMLID_171_" gradientUnits="userSpaceOnUse" x1="179.664" y1="327.5793" x2="147.0145" y2="342.403">
				<stop  offset="0.1231" style="stop-color:#FFD65B"/>
				<stop  offset="0.9692" style="stop-color:#F7923A"/>
			</linearGradient>
			<path id="XMLID_1261_" class="st149" d="M175.9,339.1l-2.9,3.2c0,0-4.6-0.1-10.8,0c-7.7,0.1-18,0.6-24.7,1.9l-3.1-7.6
				c0,0,4.2-3.8,17.3-3.9c3,0,6,0.3,8.7,0.8C169.3,335.3,175.9,339.1,175.9,339.1z"/>
			<linearGradient id="XMLID_172_" gradientUnits="userSpaceOnUse" x1="117.0876" y1="326.2564" x2="152.7394" y2="340.5172">
				<stop  offset="0.1231" style="stop-color:#FFD65B"/>
				<stop  offset="0.9692" style="stop-color:#F7923A"/>
			</linearGradient>
			<path id="XMLID_1260_" class="st150" d="M162.2,342.4c-2.5,0-5.3,0.1-8.1,0.2c-5.9,0.3-12,0.8-16.6,1.7l-3.1-7.6
				c0,0,3.9-3.5,15.8-3.9c0.5,0,1,0,1.5,0c3,0,6,0.3,8.7,0.8c-0.2,1.5,0,3.5,0.7,6.1C161.4,340.6,161.7,341.6,162.2,342.4z"/>
			<linearGradient id="XMLID_173_" gradientUnits="userSpaceOnUse" x1="125.8768" y1="338.5828" x2="152.5641" y2="338.5828">
				<stop  offset="0.1231" style="stop-color:#FFD65B"/>
				<stop  offset="0.9692" style="stop-color:#F7923A"/>
			</linearGradient>
			<path id="XMLID_1255_" class="st151" d="M154,342.6c-5.9,0.3-12,0.8-16.6,1.7l-3.1-7.6c0,0,3.9-3.5,15.8-3.9
				c0,1.5,0.4,3.6,1.6,6.2C152.4,340.4,153.2,341.6,154,342.6z"/>
		</g>
	</g>
</g>
<g id="M_RIGHT_ARM_2">
	<g id="XMLID_1281_">
		<g id="XMLID_1265_">
			<linearGradient id="XMLID_174_" gradientUnits="userSpaceOnUse" x1="289.902" y1="407.0466" x2="139.2263" y2="423.9343">
				<stop  offset="0" style="stop-color:#C66B50"/>
				<stop  offset="1" style="stop-color:#7B452B"/>
			</linearGradient>
			<path id="XMLID_1284_" class="st152" d="M274.4,398.8c-0.6,2.6-8.8,9.9-22.8,18.8c-14,8.8-24.2,12.9-27.2,13.1
				c-3,0.3-10.4-3.1-10.2-9.5c0-1.7,0.2-3.2,0.6-4.5c0.9-3.4,3-5.5,6.6-8.5c0,0,23.2-8,32-10.6c8.8-2.6,14.8-5.2,16.4-4.6
				c1.1,0.4,3.2,1.8,4.2,3.5C274.3,397.3,274.5,398.1,274.4,398.8z"/>
			<linearGradient id="XMLID_175_" gradientUnits="userSpaceOnUse" x1="283.7187" y1="372.3586" x2="226.1598" y2="425.4141">
				<stop  offset="0" style="stop-color:#C66B50"/>
				<stop  offset="1" style="stop-color:#7B452B"/>
			</linearGradient>
			<path id="XMLID_1282_" class="st153" d="M274.4,398.8c-0.6,2.6-8.8,9.9-22.8,18.8c-14,8.8-24.2,12.9-27.2,13.1
				c-3,0.3-10.4-3.1-10.2-9.5c0-1.7,0.2-3.2,0.6-4.5c1.3,0.8,3.1,1.7,5.3,2.6c5.8,2.4,15.7,1.3,33.1-7.8c13.6-7.1,19-12.8,20.8-15
				C274.3,397.3,274.5,398.1,274.4,398.8z"/>
		</g>
		<g id="XMLID_1276_">
			
				<linearGradient id="XMLID_176_" gradientUnits="userSpaceOnUse" x1="252.6023" y1="385.7661" x2="285.9821" y2="385.7661" gradientTransform="matrix(0.9753 -0.2207 0.2207 0.9753 -73.2965 63.6786)">
				<stop  offset="0" style="stop-color:#222E51"/>
				<stop  offset="1" style="stop-color:#291433"/>
			</linearGradient>
			<path id="XMLID_1270_" class="st154" d="M257.2,378.2c0,0-0.8-0.7-0.5-1.7c0.3-1.1,1.2-1.3,1.2-1.3l31.4,7.4l3.4,2.8l-4.2,0.8
				L257.2,378.2z"/>
			<g id="XMLID_1268_">
				<linearGradient id="XMLID_177_" gradientUnits="userSpaceOnUse" x1="287.8003" y1="388.2943" x2="137.1245" y2="405.1819">
					<stop  offset="0" style="stop-color:#C66B50"/>
					<stop  offset="1" style="stop-color:#7B452B"/>
				</linearGradient>
				<path id="XMLID_1292_" class="st155" d="M286.8,388.6c-0.4,0.6-0.9,1-0.9,1s0.2,0.9,0.3,1.5c0,0.1-0.2,0.4-0.5,0.8
					c-1,1.3-3.4,3.8-3.8,4.3c-0.5,0.6-0.9,0-1.4-0.8c-0.5-0.9,1-2.9,1.3-3.4c0.3-0.5,0.1-0.9,0.1-0.9s-1.1,1.6-1.8,2.8
					c-0.8,1.1-1.2,5.1-3,6.4c-1.8,1.3-5.4,0.8-5.4,0.8c-0.2,0-0.5-0.1-0.7-0.2c-2.4-1-5.6-6.7-5.6-6.7s4.5-10.6,5.2-12
					c1-2,0.8-2.5,3.6-3.3c2.8-0.8,8,0.1,8.6,1.2c0.2,0.3,0.2,0.6,0.2,0.8c0,0.5-0.3,0.8-0.3,0.8s1.5,0.8,2.7,1.6
					c0.6,0.3,0.7,0.9,0.6,1.5c-0.1,0.7-0.4,1.2-0.4,1.2s0,0,0,0c0.1,0.1,1.1,0.8,1.4,1.7C287.2,387.9,287,388.3,286.8,388.6z"/>
				<linearGradient id="XMLID_178_" gradientUnits="userSpaceOnUse" x1="286.9617" y1="384.7785" x2="262.756" y2="415.0826">
					<stop  offset="0" style="stop-color:#C66B50"/>
					<stop  offset="1" style="stop-color:#7B452B"/>
				</linearGradient>
				<path id="XMLID_1285_" class="st156" d="M285.7,391.9c-1,1.3-3.4,3.8-3.8,4.3c-0.5,0.6-0.9,0-1.4-0.8c-0.5-0.9,1-2.9,1.3-3.4
					c0.3-0.5,0.1-0.9,0.1-0.9s-1.1,1.6-1.8,2.8c-0.8,1.1-1.2,5.1-3,6.4c-1.8,1.3-5.4,0.8-5.4,0.8c-0.2,0-0.5-0.1-0.7-0.2
					c1.1-1.2,4.5-4.9,5.6-7.3c1.3-2.8,2-4.4,3-4.7c1-0.3,3.7,0.4,5.1,1.7C285.1,390.8,285.5,391.4,285.7,391.9z"/>
				<linearGradient id="XMLID_179_" gradientUnits="userSpaceOnUse" x1="290.3201" y1="382.125" x2="282.1108" y2="388.5048">
					<stop  offset="0" style="stop-color:#C66B50"/>
					<stop  offset="1" style="stop-color:#7B452B"/>
				</linearGradient>
				<path id="XMLID_1288_" class="st157" d="M286.8,388.6c-0.4,0.6-0.9,1-0.9,1s-0.8-1.3-2.3-2.3s-3.4-1.5-3.4-1.5s1.8-0.2,3.7,0.7
					C285.3,387.2,286.3,388.2,286.8,388.6z"/>
				<linearGradient id="XMLID_180_" gradientUnits="userSpaceOnUse" x1="288.3789" y1="379.6272" x2="280.1696" y2="386.007">
					<stop  offset="0" style="stop-color:#C66B50"/>
					<stop  offset="1" style="stop-color:#7B452B"/>
				</linearGradient>
				<path id="XMLID_1286_" class="st158" d="M286,384.6c-0.1,0.7-0.4,1.2-0.4,1.2s-1.9-1.3-3.5-2c-1.6-0.7-3-1-3-1s2.5-0.1,4.2,0.6
					C284.2,383.8,285.3,384.2,286,384.6z"/>
				<linearGradient id="XMLID_181_" gradientUnits="userSpaceOnUse" x1="285.8162" y1="376.3296" x2="277.6069" y2="382.7094">
					<stop  offset="0" style="stop-color:#C66B50"/>
					<stop  offset="1" style="stop-color:#7B452B"/>
				</linearGradient>
				<path id="XMLID_1283_" class="st159" d="M283.1,380.7c0,0.5-0.3,0.8-0.3,0.8s-2.4-0.6-3.7-0.8c-1.3-0.2-2.1-0.3-2.1-0.3
					s2-0.3,4.3,0C282,380.6,282.6,380.6,283.1,380.7z"/>
			</g>
		</g>
	</g>
</g>
<g id="M_RIGHT_ARM_1">
	<path id="XMLID_1253_" class="st160" d="M249.3,388.8"/>
	<g id="XMLID_2820_">
		<g id="XMLID_1264_">
			<linearGradient id="XMLID_182_" gradientUnits="userSpaceOnUse" x1="288.9465" y1="398.5372" x2="138.2739" y2="415.4245">
				<stop  offset="0" style="stop-color:#C66B50"/>
				<stop  offset="1" style="stop-color:#7B452B"/>
			</linearGradient>
			<path id="XMLID_2829_" class="st161" d="M233.7,419.4c-0.2,2.8-1.5,6-4.6,8.7c-0.5,0.5-1.1,0.9-1.7,1.3
				c-7.6,5.3-13.7-4.9-23.1-16.7c-0.3-0.4-0.6-0.8-0.9-1.2c-2.4-3-4.5-5.6-6.3-7.9c-5.5-7.2-8-11.1-8-11.1s15.2-13.7,20.8-8.8
				c0,0,2,2.7,4.9,6.6c1.2,1.6,2.6,3.4,4,5.3c5.7,7.6,12.3,16.4,13.4,17.8C233.2,414.6,233.9,416.8,233.7,419.4z"/>
			<linearGradient id="XMLID_183_" gradientUnits="userSpaceOnUse" x1="206.5482" y1="400.7805" x2="234.9758" y2="425.9713">
				<stop  offset="0" style="stop-color:#C66B50"/>
				<stop  offset="1" style="stop-color:#7B452B"/>
			</linearGradient>
			<path id="XMLID_2826_" class="st162" d="M233.7,419.4c-0.2,2.8-1.5,6-4.6,8.7c-0.5,0.5-1.1,0.9-1.7,1.3
				c-7.6,5.3-13.7-4.9-23.1-16.7c-0.3-0.4-0.6-0.8-0.9-1.2c-2.4-3-4.5-5.6-6.3-7.9l-1.3-3l11.6-9.3l7.5-1c1.2,1.6,2.6,3.4,4,5.3
				c-0.1,2,1.8,15.4,8.4,20C229.7,417.3,231.9,418.5,233.7,419.4z"/>
		</g>
		<g id="XMLID_1257_">
			<linearGradient id="XMLID_184_" gradientUnits="userSpaceOnUse" x1="176.0397" y1="340.6558" x2="213.9432" y2="424.719">
				<stop  offset="0.1231" style="stop-color:#FFD65B"/>
				<stop  offset="0.9692" style="stop-color:#F7923A"/>
			</linearGradient>
			<path id="XMLID_1277_" class="st163" d="M222.3,396.7c0,0,0,2.1-1.1,5.3c-0.7,2-1.8,4.4-3.7,7c-4.8,6.8-14.6,9.6-14.6,9.6
				s-14.6-15.8-25.9-32.1c-3.9-5.7-6.4-10.7-7.7-15.2c-2.6-8.5-1.2-15.1,1.8-19.9c6.9-11.3,19.3-5.2,26.5,7.3
				C203.1,368.4,222.3,396.7,222.3,396.7z"/>
			
				<linearGradient id="XMLID_185_" gradientUnits="userSpaceOnUse" x1="171.9189" y1="351.3073" x2="200.2527" y2="395.9658" gradientTransform="matrix(1 3.737437e-003 -3.737437e-003 1 1.3874 -0.6406)">
				<stop  offset="0.1231" style="stop-color:#FFD65B"/>
				<stop  offset="0.9692" style="stop-color:#F7923A"/>
			</linearGradient>
			<path id="XMLID_1275_" class="st164" d="M221.2,402.1c-0.7,2-1.9,4.4-3.7,7c-4.8,6.7-14.7,9.5-14.7,9.5s-14.6-15.8-25.8-32.2
				c-3.9-5.7-6.3-10.7-7.7-15.3c3.3,4,8,9.8,10.8,13.3c4.7,5.6-0.7-7.3,5.7-5.8c6.4,1.5,6.9,14.3,19.1,19.6
				C210.1,400.6,216,401.6,221.2,402.1z"/>
			<linearGradient id="XMLID_186_" gradientUnits="userSpaceOnUse" x1="201.513" y1="374.9045" x2="210.331" y2="410.5519">
				<stop  offset="0.1231" style="stop-color:#FFD65B"/>
				<stop  offset="0.9692" style="stop-color:#F7923A"/>
			</linearGradient>
			<path id="XMLID_24_" class="st165" d="M223.7,397.8c0,0-0.1,4-2.7,8.9c-1.1,2.2-2.8,4.5-5.1,6.8c-7.4,7.1-13.3,6.7-13.3,6.7
				l-8.8-9.8l-0.5-2.8c0,0,10.6-1.7,15.2-7c0.3-0.3,0.5-0.6,0.7-0.9c4.1-6.1,6.2-13.2,6.2-13.2l2.4,0.2L223.7,397.8z"/>
			<linearGradient id="XMLID_187_" gradientUnits="userSpaceOnUse" x1="215.9442" y1="402.0053" x2="216.7775" y2="384.672">
				<stop  offset="0.1016" style="stop-color:#FAAA44"/>
				<stop  offset="0.9639" style="stop-color:#FEE2A2"/>
			</linearGradient>
			<path id="XMLID_7_" class="st166" d="M215.5,387c0,0-0.7,3.3-2,6.3s-3.4,6.3-3.4,6.3s0.8,2,2.4-1s4.4-5.6,6.3-5.6
				s3.6,2.6,3.6,2.6l-4.6-8.6L215.5,387z"/>
			<linearGradient id="XMLID_188_" gradientUnits="userSpaceOnUse" x1="199.1572" y1="375.9286" x2="204.6572" y2="397.6786">
				<stop  offset="0.1231" style="stop-color:#FFD65B"/>
				<stop  offset="0.9692" style="stop-color:#F7923A"/>
			</linearGradient>
			<path id="XMLID_22_" class="st167" d="M221,406.7c-1.1,2.2-2.8,4.5-5.1,6.8c-7.4,7.1-13.3,6.7-13.3,6.7l-8.8-9.8l-0.5-2.8
				c0,0,10.6-1.7,15.2-7l0.2,0c0,0,6,7,11.8,6.3C220.7,406.7,220.9,406.7,221,406.7z"/>
			<linearGradient id="XMLID_189_" gradientUnits="userSpaceOnUse" x1="196.8177" y1="370.3004" x2="193.9427" y2="354.9254">
				<stop  offset="9.081886e-002" style="stop-color:#FBBD4E"/>
				<stop  offset="0.9639" style="stop-color:#FEE2A2"/>
			</linearGradient>
			<path id="XMLID_5_" class="st168" d="M180,347.5c1.8-1.4,7.7-0.8,13.2,6.5s20.5,31.8,20.5,31.8s-15.4-16.8-25.3-25.2
				C179.1,352.7,177.7,349.3,180,347.5z"/>
		</g>
	</g>
</g>
<g id="M_HEAD">
	<g id="XMLID_2815_">
		<linearGradient id="XMLID_190_" gradientUnits="userSpaceOnUse" x1="133.0226" y1="312.44" x2="170.029" y2="312.44">
			<stop  offset="0" style="stop-color:#C66B50"/>
			<stop  offset="1" style="stop-color:#7B452B"/>
		</linearGradient>
		<path id="XMLID_1289_" class="st169" d="M149.7,285.8c-8.4-1.1-21.2,10.1-15.1,29.4c4.9,15.6,12.6,20,20.7,23.4s12.5-8,14-20.4
			C170.9,305.8,171.9,288.7,149.7,285.8z"/>
		<g id="XMLID_2736_">
			<linearGradient id="XMLID_191_" gradientUnits="userSpaceOnUse" x1="148.8398" y1="308.1028" x2="150.9038" y2="256.5015">
				<stop  offset="0" style="stop-color:#222E51"/>
				<stop  offset="1" style="stop-color:#291433"/>
			</linearGradient>
			<path id="XMLID_1317_" class="st170" d="M175.9,312.8c-0.8,5.5-6.1,3.4-6.1,3.4s2.8,8.4,0.7,9.5c-2.2,1.1-3.7-1.8-3.7-1.8
				s-0.4,0.7-4.4,5.1c-4,4.4-10,7.4-16.7,7.3c-6.7-0.1-8.8-7-8.8-7s-2.9,2.5-5.8,0.3c-2.9-2.3,0-7.4,0-7.4s-4.8,0.9-5.5-1.4
				c-0.7-2.3,2.7-5.5,2.7-5.5s-7-1.1-7.6-8.4c-0.1-1.1,0-2.1,0.1-2.9c0.9-4.9,5.1-6.1,5.1-6.1s-0.2,0-0.5-0.1h0
				c-1.4-0.5-5.4-2.4-5.7-8.8c0-0.3,0-0.5,0-0.8c0.5-7,12.5-6.3,12.5-6.3s-4-5.1-0.8-8.2c0.9-0.9,2.5-1.7,5-2.1c11-1.7,16,10,16,10
				s1.3-8.2,6.2-6.4c4.9,1.8,7.8,11.1,7.8,11.1s10.6-1.8,12.6,5.1c0,0,0,0,0,0c1.8,6.4-6.3,11.8-7.3,12.5c-0.1,0-0.1,0.1-0.1,0.1
				S176.8,307.3,175.9,312.8z"/>
			<linearGradient id="XMLID_192_" gradientUnits="userSpaceOnUse" x1="148.2945" y1="332.6172" x2="148.2945" y2="300.179">
				<stop  offset="0" style="stop-color:#222E51"/>
				<stop  offset="1" style="stop-color:#291433"/>
			</linearGradient>
			<path id="XMLID_1310_" class="st171" d="M175.9,312.8c-0.8,5.5-6.1,3.4-6.1,3.4s2.8,8.4,0.7,9.5c-2.2,1.1-3.7-1.8-3.7-1.8
				s-0.4,0.7-4.4,5.1c-4,4.4-10,7.4-16.7,7.3c-6.7-0.1-8.8-7-8.8-7s-2.9,2.5-5.8,0.3c-2.9-2.3,0-7.4,0-7.4s-4.8,0.9-5.5-1.4
				c-0.7-2.3,2.7-5.5,2.7-5.5s-7-1.1-7.6-8.4c-0.1-1.1,0-2.1,0.1-2.9c2.2,1.9,6.1,5.1,9.7,6.3c5.3,1.8,8.6-0.1,8.6-0.1
				s-0.4,4.2,4.6,4.5c5.1,0.3,8.3-3.5,8.3-3.5s3,4.4,7,3.4c4.1-1,5.3-4.9,5.3-4.9S171.4,314.1,175.9,312.8z"/>
			<linearGradient id="XMLID_193_" gradientUnits="userSpaceOnUse" x1="169.6248" y1="258.9488" x2="170.9383" y2="283.7174">
				<stop  offset="0" style="stop-color:#222E51"/>
				<stop  offset="1" style="stop-color:#291433"/>
			</linearGradient>
			<path id="XMLID_1313_" class="st172" d="M171.7,303.7c-5-1.5-8-7-8-7s3.1,2.5,7.3,1.8c4.4-0.7,6.9-5,8-7.3
				C180.9,297.7,172.7,303.1,171.7,303.7z"/>
			<linearGradient id="XMLID_194_" gradientUnits="userSpaceOnUse" x1="125.2631" y1="261.3013" x2="126.5765" y2="286.0699">
				<stop  offset="0" style="stop-color:#222E51"/>
				<stop  offset="1" style="stop-color:#291433"/>
			</linearGradient>
			<path id="XMLID_1311_" class="st173" d="M133.8,290.4c0,0-3,6.6-8.3,7.2h-0.1c-1.4-0.5-5.4-2.4-5.7-8.8c0-0.3,0-0.5,0-0.8
				c1.4,1.8,3.4,3.4,6.1,3.4C131.7,291.3,133.8,290.4,133.8,290.4z"/>
			<linearGradient id="XMLID_195_" gradientUnits="userSpaceOnUse" x1="135.2517" y1="260.7716" x2="136.5652" y2="285.5403">
				<stop  offset="0" style="stop-color:#222E51"/>
				<stop  offset="1" style="stop-color:#291433"/>
			</linearGradient>
			<path id="XMLID_1309_" class="st174" d="M132.2,281.8c0,0-4-5.1-0.8-8.2c1.7-0.1,4.1,0.4,7,2.5
				C144.9,280.6,143.3,285.5,132.2,281.8z"/>
		</g>
	</g>
</g>
</svg>
